<svg width="1480" height="168" viewBox="0 0 1480 168" fill="none" xmlns="http://www.w3.org/2000/svg">
<g filter="url(#filter0_d_59_1348)">
<rect x="20" y="20" width="1440" height="54" fill="white"/>
</g>
<line x1="416.5" y1="38" x2="416.5" y2="60" stroke="#E2E4E7"/>
<rect width="12" height="12" transform="matrix(0 -1 1 0 98 53)" fill="white"/>
<path d="M109 45L104 50L99 45L99.8875 44.1125L104 48.225L108.113 44.1125L109 45Z" fill="black"/>
<path d="M51.5 44.5781H54.8984C56.3724 44.5781 57.4844 44.7917 58.2344 45.2188C58.9844 45.6458 59.3594 46.3828 59.3594 47.4297C59.3594 47.8672 59.2812 48.263 59.125 48.6172C58.974 48.9661 58.7526 49.2552 58.4609 49.4844C58.1693 49.7083 57.8099 49.8594 57.3828 49.9375V50.0156C57.8255 50.0938 58.2188 50.2318 58.5625 50.4297C58.9115 50.6276 59.1849 50.9115 59.3828 51.2812C59.5859 51.651 59.6875 52.1302 59.6875 52.7188C59.6875 53.4167 59.5208 54.0104 59.1875 54.5C58.8594 54.9896 58.388 55.362 57.7734 55.6172C57.1641 55.8724 56.4401 56 55.6016 56H51.5V44.5781ZM53.375 49.2891H55.1719C56.0208 49.2891 56.6094 49.151 56.9375 48.875C57.2656 48.599 57.4297 48.1953 57.4297 47.6641C57.4297 47.1224 57.2344 46.7318 56.8438 46.4922C56.4583 46.2526 55.8438 46.1328 55 46.1328H53.375V49.2891ZM53.375 50.8047V54.4297H55.3516C56.2266 54.4297 56.8411 54.2604 57.1953 53.9219C57.5495 53.5833 57.7266 53.125 57.7266 52.5469C57.7266 52.1927 57.6458 51.8854 57.4844 51.625C57.3281 51.3646 57.0703 51.1641 56.7109 51.0234C56.3516 50.8776 55.8672 50.8047 55.2578 50.8047H53.375ZM69.5156 51.6562C69.5156 52.375 69.4219 53.013 69.2344 53.5703C69.0469 54.1276 68.7734 54.599 68.4141 54.9844C68.0547 55.3646 67.6224 55.6562 67.1172 55.8594C66.612 56.0573 66.0417 56.1562 65.4062 56.1562C64.8125 56.1562 64.2682 56.0573 63.7734 55.8594C63.2786 55.6562 62.849 55.3646 62.4844 54.9844C62.125 54.599 61.8464 54.1276 61.6484 53.5703C61.4505 53.013 61.3516 52.375 61.3516 51.6562C61.3516 50.7031 61.5156 49.8958 61.8438 49.2344C62.1771 48.5677 62.651 48.0599 63.2656 47.7109C63.8802 47.362 64.612 47.1875 65.4609 47.1875C66.2578 47.1875 66.9609 47.362 67.5703 47.7109C68.1797 48.0599 68.6562 48.5677 69 49.2344C69.3438 49.901 69.5156 50.7083 69.5156 51.6562ZM63.2422 51.6562C63.2422 52.2865 63.3177 52.8255 63.4688 53.2734C63.625 53.7214 63.8646 54.0651 64.1875 54.3047C64.5104 54.5391 64.9271 54.6562 65.4375 54.6562C65.9479 54.6562 66.3646 54.5391 66.6875 54.3047C67.0104 54.0651 67.2474 53.7214 67.3984 53.2734C67.5495 52.8255 67.625 52.2865 67.625 51.6562C67.625 51.026 67.5495 50.4922 67.3984 50.0547C67.2474 49.612 67.0104 49.276 66.6875 49.0469C66.3646 48.8125 65.9453 48.6953 65.4297 48.6953C64.6693 48.6953 64.1146 48.9505 63.7656 49.4609C63.4167 49.9714 63.2422 50.7031 63.2422 51.6562ZM79.2812 51.6562C79.2812 52.375 79.1875 53.013 79 53.5703C78.8125 54.1276 78.5391 54.599 78.1797 54.9844C77.8203 55.3646 77.388 55.6562 76.8828 55.8594C76.3776 56.0573 75.8073 56.1562 75.1719 56.1562C74.5781 56.1562 74.0339 56.0573 73.5391 55.8594C73.0443 55.6562 72.6146 55.3646 72.25 54.9844C71.8906 54.599 71.612 54.1276 71.4141 53.5703C71.2161 53.013 71.1172 52.375 71.1172 51.6562C71.1172 50.7031 71.2812 49.8958 71.6094 49.2344C71.9427 48.5677 72.4167 48.0599 73.0312 47.7109C73.6458 47.362 74.3776 47.1875 75.2266 47.1875C76.0234 47.1875 76.7266 47.362 77.3359 47.7109C77.9453 48.0599 78.4219 48.5677 78.7656 49.2344C79.1094 49.901 79.2812 50.7083 79.2812 51.6562ZM73.0078 51.6562C73.0078 52.2865 73.0833 52.8255 73.2344 53.2734C73.3906 53.7214 73.6302 54.0651 73.9531 54.3047C74.276 54.5391 74.6927 54.6562 75.2031 54.6562C75.7135 54.6562 76.1302 54.5391 76.4531 54.3047C76.776 54.0651 77.013 53.7214 77.1641 53.2734C77.3151 52.8255 77.3906 52.2865 77.3906 51.6562C77.3906 51.026 77.3151 50.4922 77.1641 50.0547C77.013 49.612 76.776 49.276 76.4531 49.0469C76.1302 48.8125 75.7109 48.6953 75.1953 48.6953C74.4349 48.6953 73.8802 48.9505 73.5312 49.4609C73.1823 49.9714 73.0078 50.7031 73.0078 51.6562ZM83.2266 43.8438V49.7188C83.2266 49.9844 83.2161 50.276 83.1953 50.5938C83.1745 50.9062 83.1536 51.2005 83.1328 51.4766H83.1719C83.3073 51.2943 83.4688 51.0807 83.6562 50.8359C83.849 50.5911 84.0312 50.3776 84.2031 50.1953L86.8438 47.3516H88.9531L85.4922 51.0703L89.1797 56H87.0234L84.2578 52.2031L83.2266 53.0859V56H81.3906V43.8438H83.2266Z" fill="black"/>
<rect width="12" height="12" transform="matrix(0 -1 1 0 181 53)" fill="white"/>
<path d="M192 45L187 50L182 45L182.888 44.1125L187 48.225L191.113 44.1125L192 45Z" fill="black"/>
<path d="M143.82 45.5781C145.294 45.5781 146.37 45.8802 147.047 46.4844C147.724 47.0885 148.062 47.9349 148.062 49.0234C148.062 49.5182 147.984 49.9896 147.828 50.4375C147.677 50.8802 147.427 51.2734 147.078 51.6172C146.729 51.9557 146.268 52.224 145.695 52.4219C145.128 52.6198 144.427 52.7188 143.594 52.7188H142.375V57H140.5V45.5781H143.82ZM143.695 47.1328H142.375V51.1562H143.398C143.987 51.1562 144.487 51.0885 144.898 50.9531C145.31 50.8125 145.622 50.5911 145.836 50.2891C146.049 49.987 146.156 49.5885 146.156 49.0938C146.156 48.4323 145.956 47.9401 145.555 47.6172C145.159 47.2943 144.539 47.1328 143.695 47.1328ZM152 57H150.156V44.8438H152V57ZM158.016 48.1875C159.109 48.1875 159.935 48.4297 160.492 48.9141C161.055 49.3984 161.336 50.1536 161.336 51.1797V57H160.031L159.68 55.7734H159.617C159.372 56.0859 159.12 56.3438 158.859 56.5469C158.599 56.75 158.297 56.901 157.953 57C157.615 57.1042 157.201 57.1562 156.711 57.1562C156.195 57.1562 155.734 57.0625 155.328 56.875C154.922 56.6823 154.602 56.3906 154.367 56C154.133 55.6094 154.016 55.1146 154.016 54.5156C154.016 53.625 154.346 52.9557 155.008 52.5078C155.674 52.0599 156.68 51.8125 158.023 51.7656L159.523 51.7109V51.2578C159.523 50.6589 159.383 50.2318 159.102 49.9766C158.826 49.7214 158.435 49.5938 157.93 49.5938C157.497 49.5938 157.078 49.6562 156.672 49.7812C156.266 49.9062 155.87 50.0599 155.484 50.2422L154.891 48.9453C155.312 48.7214 155.792 48.5391 156.328 48.3984C156.87 48.2578 157.432 48.1875 158.016 48.1875ZM159.516 52.8672L158.398 52.9062C157.482 52.9375 156.839 53.0938 156.469 53.375C156.099 53.6562 155.914 54.0417 155.914 54.5312C155.914 54.9583 156.042 55.2708 156.297 55.4688C156.552 55.6615 156.888 55.7578 157.305 55.7578C157.94 55.7578 158.466 55.5781 158.883 55.2188C159.305 54.8542 159.516 54.3203 159.516 53.6172V52.8672ZM168.414 48.1875C169.388 48.1875 170.146 48.4401 170.688 48.9453C171.234 49.4453 171.508 50.25 171.508 51.3594V57H169.672V51.7031C169.672 51.0312 169.534 50.5286 169.258 50.1953C168.982 49.8568 168.555 49.6875 167.977 49.6875C167.138 49.6875 166.555 49.9453 166.227 50.4609C165.904 50.9766 165.742 51.724 165.742 52.7031V57H163.906V48.3516H165.336L165.594 49.5234H165.695C165.883 49.2214 166.115 48.974 166.391 48.7812C166.672 48.5833 166.984 48.4349 167.328 48.3359C167.677 48.237 168.039 48.1875 168.414 48.1875Z" fill="black"/>
<rect width="12" height="12" transform="matrix(0 -1 1 0 374 53)" fill="white"/>
<path d="M385 45L380 50L375 45L375.888 44.1125L380 48.225L384.113 44.1125L385 45Z" fill="black"/>
<path d="M304.578 57L303.461 53.8281H299.094L297.977 57H296L300.25 45.5312H302.328L306.57 57H304.578ZM302.977 52.2188L301.891 49.0938C301.849 48.9583 301.789 48.7682 301.711 48.5234C301.633 48.2734 301.555 48.0208 301.477 47.7656C301.398 47.5052 301.333 47.2865 301.281 47.1094C301.229 47.3229 301.164 47.5625 301.086 47.8281C301.013 48.0885 300.94 48.3333 300.867 48.5625C300.799 48.7917 300.747 48.9688 300.711 49.0938L299.617 52.2188H302.977ZM311.336 48.1875C312.107 48.1875 312.768 48.3464 313.32 48.6641C313.872 48.9818 314.297 49.4323 314.594 50.0156C314.891 50.599 315.039 51.2969 315.039 52.1094V53.0938H309.266C309.286 53.9323 309.51 54.5781 309.938 55.0312C310.37 55.4844 310.974 55.7109 311.75 55.7109C312.302 55.7109 312.797 55.6589 313.234 55.5547C313.677 55.4453 314.133 55.2865 314.602 55.0781V56.5703C314.169 56.7734 313.729 56.9219 313.281 57.0156C312.833 57.1094 312.297 57.1562 311.672 57.1562C310.823 57.1562 310.076 56.9922 309.43 56.6641C308.789 56.3307 308.286 55.8359 307.922 55.1797C307.562 54.5234 307.383 53.7083 307.383 52.7344C307.383 51.7656 307.547 50.9427 307.875 50.2656C308.203 49.5885 308.664 49.0729 309.258 48.7188C309.852 48.3646 310.544 48.1875 311.336 48.1875ZM311.336 49.5703C310.758 49.5703 310.289 49.7578 309.93 50.1328C309.576 50.5078 309.367 51.0573 309.305 51.7812H313.242C313.237 51.349 313.164 50.9661 313.023 50.6328C312.888 50.2995 312.68 50.0391 312.398 49.8516C312.122 49.6641 311.768 49.5703 311.336 49.5703ZM321.492 48.1875C321.638 48.1875 321.797 48.1953 321.969 48.2109C322.141 48.2266 322.289 48.2474 322.414 48.2734L322.242 49.9922C322.133 49.9609 321.997 49.9375 321.836 49.9219C321.68 49.9062 321.539 49.8984 321.414 49.8984C321.086 49.8984 320.773 49.9531 320.477 50.0625C320.18 50.1667 319.917 50.3281 319.688 50.5469C319.458 50.7604 319.279 51.0286 319.148 51.3516C319.018 51.6745 318.953 52.0495 318.953 52.4766V57H317.109V48.3516H318.547L318.797 49.875H318.883C319.055 49.5677 319.268 49.2865 319.523 49.0312C319.779 48.776 320.07 48.5729 320.398 48.4219C320.732 48.2656 321.096 48.1875 321.492 48.1875ZM331.672 52.6562C331.672 53.375 331.578 54.013 331.391 54.5703C331.203 55.1276 330.93 55.599 330.57 55.9844C330.211 56.3646 329.779 56.6562 329.273 56.8594C328.768 57.0573 328.198 57.1562 327.562 57.1562C326.969 57.1562 326.424 57.0573 325.93 56.8594C325.435 56.6562 325.005 56.3646 324.641 55.9844C324.281 55.599 324.003 55.1276 323.805 54.5703C323.607 54.013 323.508 53.375 323.508 52.6562C323.508 51.7031 323.672 50.8958 324 50.2344C324.333 49.5677 324.807 49.0599 325.422 48.7109C326.036 48.362 326.768 48.1875 327.617 48.1875C328.414 48.1875 329.117 48.362 329.727 48.7109C330.336 49.0599 330.812 49.5677 331.156 50.2344C331.5 50.901 331.672 51.7083 331.672 52.6562ZM325.398 52.6562C325.398 53.2865 325.474 53.8255 325.625 54.2734C325.781 54.7214 326.021 55.0651 326.344 55.3047C326.667 55.5391 327.083 55.6562 327.594 55.6562C328.104 55.6562 328.521 55.5391 328.844 55.3047C329.167 55.0651 329.404 54.7214 329.555 54.2734C329.706 53.8255 329.781 53.2865 329.781 52.6562C329.781 52.026 329.706 51.4922 329.555 51.0547C329.404 50.612 329.167 50.276 328.844 50.0469C328.521 49.8125 328.102 49.6953 327.586 49.6953C326.826 49.6953 326.271 49.9505 325.922 50.4609C325.573 50.9714 325.398 51.7031 325.398 52.6562ZM338.219 48.1875C339.245 48.1875 340.068 48.5625 340.688 49.3125C341.312 50.0625 341.625 51.1771 341.625 52.6562C341.625 53.6354 341.479 54.4609 341.188 55.1328C340.901 55.7995 340.497 56.3047 339.977 56.6484C339.461 56.987 338.859 57.1562 338.172 57.1562C337.734 57.1562 337.354 57.099 337.031 56.9844C336.708 56.8698 336.432 56.7214 336.203 56.5391C335.974 56.3516 335.781 56.1484 335.625 55.9297H335.516C335.542 56.138 335.565 56.3698 335.586 56.625C335.612 56.875 335.625 57.1042 335.625 57.3125V60.8359H333.781V48.3516H335.281L335.539 49.5469H335.625C335.786 49.3021 335.982 49.0755 336.211 48.8672C336.445 48.6589 336.727 48.4948 337.055 48.375C337.388 48.25 337.776 48.1875 338.219 48.1875ZM337.727 49.6875C337.221 49.6875 336.815 49.7891 336.508 49.9922C336.206 50.1901 335.984 50.4896 335.844 50.8906C335.708 51.2917 335.635 51.7943 335.625 52.3984V52.6562C335.625 53.2969 335.69 53.8411 335.82 54.2891C335.956 54.7318 336.177 55.0703 336.484 55.3047C336.797 55.5339 337.219 55.6484 337.75 55.6484C338.198 55.6484 338.568 55.526 338.859 55.2812C339.156 55.0365 339.378 54.6875 339.523 54.2344C339.669 53.7812 339.742 53.2474 339.742 52.6328C339.742 51.7005 339.576 50.9766 339.242 50.4609C338.914 49.9453 338.409 49.6875 337.727 49.6875ZM345.594 57H343.75V44.8438H345.594V57ZM351.609 48.1875C352.703 48.1875 353.529 48.4297 354.086 48.9141C354.648 49.3984 354.93 50.1536 354.93 51.1797V57H353.625L353.273 55.7734H353.211C352.966 56.0859 352.714 56.3438 352.453 56.5469C352.193 56.75 351.891 56.901 351.547 57C351.208 57.1042 350.794 57.1562 350.305 57.1562C349.789 57.1562 349.328 57.0625 348.922 56.875C348.516 56.6823 348.195 56.3906 347.961 56C347.727 55.6094 347.609 55.1146 347.609 54.5156C347.609 53.625 347.94 52.9557 348.602 52.5078C349.268 52.0599 350.273 51.8125 351.617 51.7656L353.117 51.7109V51.2578C353.117 50.6589 352.977 50.2318 352.695 49.9766C352.419 49.7214 352.029 49.5938 351.523 49.5938C351.091 49.5938 350.672 49.6562 350.266 49.7812C349.859 49.9062 349.464 50.0599 349.078 50.2422L348.484 48.9453C348.906 48.7214 349.385 48.5391 349.922 48.3984C350.464 48.2578 351.026 48.1875 351.609 48.1875ZM353.109 52.8672L351.992 52.9062C351.076 52.9375 350.432 53.0938 350.062 53.375C349.693 53.6562 349.508 54.0417 349.508 54.5312C349.508 54.9583 349.635 55.2708 349.891 55.4688C350.146 55.6615 350.482 55.7578 350.898 55.7578C351.534 55.7578 352.06 55.5781 352.477 55.2188C352.898 54.8542 353.109 54.3203 353.109 53.6172V52.8672ZM362.008 48.1875C362.982 48.1875 363.74 48.4401 364.281 48.9453C364.828 49.4453 365.102 50.25 365.102 51.3594V57H363.266V51.7031C363.266 51.0312 363.128 50.5286 362.852 50.1953C362.576 49.8568 362.148 49.6875 361.57 49.6875C360.732 49.6875 360.148 49.9453 359.82 50.4609C359.497 50.9766 359.336 51.724 359.336 52.7031V57H357.5V48.3516H358.93L359.188 49.5234H359.289C359.477 49.2214 359.708 48.974 359.984 48.7812C360.266 48.5833 360.578 48.4349 360.922 48.3359C361.271 48.237 361.633 48.1875 362.008 48.1875Z" fill="black"/>
<path d="M452.367 47.0078C451.82 47.0078 451.331 47.1068 450.898 47.3047C450.471 47.5026 450.109 47.7891 449.812 48.1641C449.516 48.5339 449.289 48.9844 449.133 49.5156C448.977 50.0417 448.898 50.6354 448.898 51.2969C448.898 52.1823 449.023 52.9453 449.273 53.5859C449.523 54.2214 449.904 54.7109 450.414 55.0547C450.924 55.3932 451.57 55.5625 452.352 55.5625C452.836 55.5625 453.307 55.5156 453.766 55.4219C454.224 55.3281 454.698 55.2005 455.188 55.0391V56.6328C454.724 56.8151 454.255 56.9479 453.781 57.0312C453.307 57.1146 452.76 57.1562 452.141 57.1562C450.974 57.1562 450.005 56.9141 449.234 56.4297C448.469 55.9453 447.896 55.263 447.516 54.3828C447.141 53.5026 446.953 52.4714 446.953 51.2891C446.953 50.4245 447.073 49.6328 447.312 48.9141C447.552 48.1953 447.901 47.5755 448.359 47.0547C448.818 46.5286 449.383 46.125 450.055 45.8438C450.732 45.5573 451.505 45.4141 452.375 45.4141C452.948 45.4141 453.51 45.4792 454.062 45.6094C454.62 45.7344 455.135 45.9141 455.609 46.1484L454.953 47.6953C454.557 47.5078 454.143 47.3464 453.711 47.2109C453.279 47.0755 452.831 47.0078 452.367 47.0078ZM464.992 48.3516V57H463.547L463.297 55.8359H463.195C463.013 56.1328 462.781 56.3802 462.5 56.5781C462.219 56.7708 461.906 56.9141 461.562 57.0078C461.219 57.1068 460.857 57.1562 460.477 57.1562C459.826 57.1562 459.268 57.0469 458.805 56.8281C458.346 56.6042 457.995 56.2604 457.75 55.7969C457.505 55.3333 457.383 54.7344 457.383 54V48.3516H459.227V53.6562C459.227 54.3281 459.362 54.8307 459.633 55.1641C459.909 55.4974 460.336 55.6641 460.914 55.6641C461.471 55.6641 461.914 55.5495 462.242 55.3203C462.57 55.0911 462.802 54.7526 462.938 54.3047C463.078 53.8568 463.148 53.3073 463.148 52.6562V48.3516H464.992ZM473.438 54.5312C473.438 55.099 473.299 55.5781 473.023 55.9688C472.747 56.3594 472.344 56.6562 471.812 56.8594C471.286 57.0573 470.641 57.1562 469.875 57.1562C469.271 57.1562 468.75 57.112 468.312 57.0234C467.88 56.9401 467.471 56.8099 467.086 56.6328V55.0469C467.497 55.2396 467.958 55.4062 468.469 55.5469C468.984 55.6875 469.471 55.7578 469.93 55.7578C470.534 55.7578 470.969 55.6641 471.234 55.4766C471.5 55.2839 471.633 55.0286 471.633 54.7109C471.633 54.5234 471.578 54.3568 471.469 54.2109C471.365 54.0599 471.167 53.9062 470.875 53.75C470.589 53.5885 470.167 53.3958 469.609 53.1719C469.062 52.9531 468.602 52.7344 468.227 52.5156C467.852 52.2969 467.568 52.0339 467.375 51.7266C467.182 51.4141 467.086 51.0156 467.086 50.5312C467.086 49.7656 467.388 49.1849 467.992 48.7891C468.602 48.388 469.406 48.1875 470.406 48.1875C470.938 48.1875 471.438 48.2422 471.906 48.3516C472.38 48.4557 472.844 48.6094 473.297 48.8125L472.719 50.1953C472.328 50.0234 471.935 49.8828 471.539 49.7734C471.148 49.6589 470.75 49.6016 470.344 49.6016C469.87 49.6016 469.508 49.6745 469.258 49.8203C469.013 49.9661 468.891 50.1745 468.891 50.4453C468.891 50.6484 468.951 50.8203 469.07 50.9609C469.19 51.1016 469.396 51.2422 469.688 51.3828C469.984 51.5234 470.396 51.6979 470.922 51.9062C471.438 52.1042 471.883 52.3125 472.258 52.5312C472.638 52.7448 472.93 53.0078 473.133 53.3203C473.336 53.6328 473.438 54.0365 473.438 54.5312ZM478.641 55.6719C478.88 55.6719 479.117 55.651 479.352 55.6094C479.586 55.5625 479.799 55.5078 479.992 55.4453V56.8359C479.789 56.9245 479.526 57 479.203 57.0625C478.88 57.125 478.544 57.1562 478.195 57.1562C477.706 57.1562 477.266 57.0755 476.875 56.9141C476.484 56.7474 476.174 56.4635 475.945 56.0625C475.716 55.6615 475.602 55.1068 475.602 54.3984V49.75H474.422V48.9297L475.688 48.2812L476.289 46.4297H477.445V48.3516H479.922V49.75H477.445V54.375C477.445 54.8125 477.555 55.138 477.773 55.3516C477.992 55.5651 478.281 55.6719 478.641 55.6719ZM489.406 52.6562C489.406 53.375 489.312 54.013 489.125 54.5703C488.938 55.1276 488.664 55.599 488.305 55.9844C487.945 56.3646 487.513 56.6562 487.008 56.8594C486.503 57.0573 485.932 57.1562 485.297 57.1562C484.703 57.1562 484.159 57.0573 483.664 56.8594C483.169 56.6562 482.74 56.3646 482.375 55.9844C482.016 55.599 481.737 55.1276 481.539 54.5703C481.341 54.013 481.242 53.375 481.242 52.6562C481.242 51.7031 481.406 50.8958 481.734 50.2344C482.068 49.5677 482.542 49.0599 483.156 48.7109C483.771 48.362 484.503 48.1875 485.352 48.1875C486.148 48.1875 486.852 48.362 487.461 48.7109C488.07 49.0599 488.547 49.5677 488.891 50.2344C489.234 50.901 489.406 51.7083 489.406 52.6562ZM483.133 52.6562C483.133 53.2865 483.208 53.8255 483.359 54.2734C483.516 54.7214 483.755 55.0651 484.078 55.3047C484.401 55.5391 484.818 55.6562 485.328 55.6562C485.839 55.6562 486.255 55.5391 486.578 55.3047C486.901 55.0651 487.138 54.7214 487.289 54.2734C487.44 53.8255 487.516 53.2865 487.516 52.6562C487.516 52.026 487.44 51.4922 487.289 51.0547C487.138 50.612 486.901 50.276 486.578 50.0469C486.255 49.8125 485.836 49.6953 485.32 49.6953C484.56 49.6953 484.005 49.9505 483.656 50.4609C483.307 50.9714 483.133 51.7031 483.133 52.6562ZM501.289 48.1875C502.258 48.1875 502.987 48.4375 503.477 48.9375C503.971 49.4375 504.219 50.2396 504.219 51.3438V57H502.383V51.6719C502.383 51.0156 502.255 50.5208 502 50.1875C501.745 49.8542 501.357 49.6875 500.836 49.6875C500.107 49.6875 499.581 49.9219 499.258 50.3906C498.94 50.8542 498.781 51.5286 498.781 52.4141V57H496.945V51.6719C496.945 51.2344 496.888 50.8698 496.773 50.5781C496.664 50.2812 496.495 50.0599 496.266 49.9141C496.036 49.763 495.747 49.6875 495.398 49.6875C494.893 49.6875 494.49 49.8021 494.188 50.0312C493.891 50.2604 493.677 50.599 493.547 51.0469C493.417 51.4896 493.352 52.0339 493.352 52.6797V57H491.516V48.3516H492.945L493.203 49.5156H493.305C493.482 49.2135 493.701 48.9661 493.961 48.7734C494.227 48.5755 494.521 48.4297 494.844 48.3359C495.167 48.237 495.503 48.1875 495.852 48.1875C496.497 48.1875 497.042 48.3021 497.484 48.5312C497.927 48.7552 498.258 49.099 498.477 49.5625H498.617C498.888 49.0938 499.266 48.7474 499.75 48.5234C500.234 48.2995 500.747 48.1875 501.289 48.1875ZM510.227 48.1875C510.997 48.1875 511.659 48.3464 512.211 48.6641C512.763 48.9818 513.188 49.4323 513.484 50.0156C513.781 50.599 513.93 51.2969 513.93 52.1094V53.0938H508.156C508.177 53.9323 508.401 54.5781 508.828 55.0312C509.26 55.4844 509.865 55.7109 510.641 55.7109C511.193 55.7109 511.688 55.6589 512.125 55.5547C512.568 55.4453 513.023 55.2865 513.492 55.0781V56.5703C513.06 56.7734 512.62 56.9219 512.172 57.0156C511.724 57.1094 511.188 57.1562 510.562 57.1562C509.714 57.1562 508.966 56.9922 508.32 56.6641C507.68 56.3307 507.177 55.8359 506.812 55.1797C506.453 54.5234 506.273 53.7083 506.273 52.7344C506.273 51.7656 506.438 50.9427 506.766 50.2656C507.094 49.5885 507.555 49.0729 508.148 48.7188C508.742 48.3646 509.435 48.1875 510.227 48.1875ZM510.227 49.5703C509.648 49.5703 509.18 49.7578 508.82 50.1328C508.466 50.5078 508.258 51.0573 508.195 51.7812H512.133C512.128 51.349 512.055 50.9661 511.914 50.6328C511.779 50.2995 511.57 50.0391 511.289 49.8516C511.013 49.6641 510.659 49.5703 510.227 49.5703ZM520.383 48.1875C520.529 48.1875 520.688 48.1953 520.859 48.2109C521.031 48.2266 521.18 48.2474 521.305 48.2734L521.133 49.9922C521.023 49.9609 520.888 49.9375 520.727 49.9219C520.57 49.9062 520.43 49.8984 520.305 49.8984C519.977 49.8984 519.664 49.9531 519.367 50.0625C519.07 50.1667 518.807 50.3281 518.578 50.5469C518.349 50.7604 518.169 51.0286 518.039 51.3516C517.909 51.6745 517.844 52.0495 517.844 52.4766V57H516V48.3516H517.438L517.688 49.875H517.773C517.945 49.5677 518.159 49.2865 518.414 49.0312C518.669 48.776 518.961 48.5729 519.289 48.4219C519.622 48.2656 519.987 48.1875 520.383 48.1875ZM532.875 54.5312C532.875 55.099 532.737 55.5781 532.461 55.9688C532.185 56.3594 531.781 56.6562 531.25 56.8594C530.724 57.0573 530.078 57.1562 529.312 57.1562C528.708 57.1562 528.188 57.112 527.75 57.0234C527.318 56.9401 526.909 56.8099 526.523 56.6328V55.0469C526.935 55.2396 527.396 55.4062 527.906 55.5469C528.422 55.6875 528.909 55.7578 529.367 55.7578C529.971 55.7578 530.406 55.6641 530.672 55.4766C530.938 55.2839 531.07 55.0286 531.07 54.7109C531.07 54.5234 531.016 54.3568 530.906 54.2109C530.802 54.0599 530.604 53.9062 530.312 53.75C530.026 53.5885 529.604 53.3958 529.047 53.1719C528.5 52.9531 528.039 52.7344 527.664 52.5156C527.289 52.2969 527.005 52.0339 526.812 51.7266C526.62 51.4141 526.523 51.0156 526.523 50.5312C526.523 49.7656 526.826 49.1849 527.43 48.7891C528.039 48.388 528.844 48.1875 529.844 48.1875C530.375 48.1875 530.875 48.2422 531.344 48.3516C531.818 48.4557 532.281 48.6094 532.734 48.8125L532.156 50.1953C531.766 50.0234 531.372 49.8828 530.977 49.7734C530.586 49.6589 530.188 49.6016 529.781 49.6016C529.307 49.6016 528.945 49.6745 528.695 49.8203C528.451 49.9661 528.328 50.1745 528.328 50.4453C528.328 50.6484 528.388 50.8203 528.508 50.9609C528.628 51.1016 528.833 51.2422 529.125 51.3828C529.422 51.5234 529.833 51.6979 530.359 51.9062C530.875 52.1042 531.32 52.3125 531.695 52.5312C532.076 52.7448 532.367 53.0078 532.57 53.3203C532.773 53.6328 532.875 54.0365 532.875 54.5312ZM542.398 48.3516V57H540.953L540.703 55.8359H540.602C540.419 56.1328 540.188 56.3802 539.906 56.5781C539.625 56.7708 539.312 56.9141 538.969 57.0078C538.625 57.1068 538.263 57.1562 537.883 57.1562C537.232 57.1562 536.674 57.0469 536.211 56.8281C535.753 56.6042 535.401 56.2604 535.156 55.7969C534.911 55.3333 534.789 54.7344 534.789 54V48.3516H536.633V53.6562C536.633 54.3281 536.768 54.8307 537.039 55.1641C537.315 55.4974 537.742 55.6641 538.32 55.6641C538.878 55.6641 539.32 55.5495 539.648 55.3203C539.977 55.0911 540.208 54.7526 540.344 54.3047C540.484 53.8568 540.555 53.3073 540.555 52.6562V48.3516H542.398ZM549.469 48.1875C550.495 48.1875 551.318 48.5625 551.938 49.3125C552.562 50.0625 552.875 51.1771 552.875 52.6562C552.875 53.6354 552.729 54.4609 552.438 55.1328C552.151 55.7995 551.747 56.3047 551.227 56.6484C550.711 56.987 550.109 57.1562 549.422 57.1562C548.984 57.1562 548.604 57.099 548.281 56.9844C547.958 56.8698 547.682 56.7214 547.453 56.5391C547.224 56.3516 547.031 56.1484 546.875 55.9297H546.766C546.792 56.138 546.815 56.3698 546.836 56.625C546.862 56.875 546.875 57.1042 546.875 57.3125V60.8359H545.031V48.3516H546.531L546.789 49.5469H546.875C547.036 49.3021 547.232 49.0755 547.461 48.8672C547.695 48.6589 547.977 48.4948 548.305 48.375C548.638 48.25 549.026 48.1875 549.469 48.1875ZM548.977 49.6875C548.471 49.6875 548.065 49.7891 547.758 49.9922C547.456 50.1901 547.234 50.4896 547.094 50.8906C546.958 51.2917 546.885 51.7943 546.875 52.3984V52.6562C546.875 53.2969 546.94 53.8411 547.07 54.2891C547.206 54.7318 547.427 55.0703 547.734 55.3047C548.047 55.5339 548.469 55.6484 549 55.6484C549.448 55.6484 549.818 55.526 550.109 55.2812C550.406 55.0365 550.628 54.6875 550.773 54.2344C550.919 53.7812 550.992 53.2474 550.992 52.6328C550.992 51.7005 550.826 50.9766 550.492 50.4609C550.164 49.9453 549.659 49.6875 548.977 49.6875ZM559.438 48.1875C560.464 48.1875 561.286 48.5625 561.906 49.3125C562.531 50.0625 562.844 51.1771 562.844 52.6562C562.844 53.6354 562.698 54.4609 562.406 55.1328C562.12 55.7995 561.716 56.3047 561.195 56.6484C560.68 56.987 560.078 57.1562 559.391 57.1562C558.953 57.1562 558.573 57.099 558.25 56.9844C557.927 56.8698 557.651 56.7214 557.422 56.5391C557.193 56.3516 557 56.1484 556.844 55.9297H556.734C556.76 56.138 556.784 56.3698 556.805 56.625C556.831 56.875 556.844 57.1042 556.844 57.3125V60.8359H555V48.3516H556.5L556.758 49.5469H556.844C557.005 49.3021 557.201 49.0755 557.43 48.8672C557.664 48.6589 557.945 48.4948 558.273 48.375C558.607 48.25 558.995 48.1875 559.438 48.1875ZM558.945 49.6875C558.44 49.6875 558.034 49.7891 557.727 49.9922C557.424 50.1901 557.203 50.4896 557.062 50.8906C556.927 51.2917 556.854 51.7943 556.844 52.3984V52.6562C556.844 53.2969 556.909 53.8411 557.039 54.2891C557.174 54.7318 557.396 55.0703 557.703 55.3047C558.016 55.5339 558.438 55.6484 558.969 55.6484C559.417 55.6484 559.786 55.526 560.078 55.2812C560.375 55.0365 560.596 54.6875 560.742 54.2344C560.888 53.7812 560.961 53.2474 560.961 52.6328C560.961 51.7005 560.794 50.9766 560.461 50.4609C560.133 49.9453 559.628 49.6875 558.945 49.6875ZM572.625 52.6562C572.625 53.375 572.531 54.013 572.344 54.5703C572.156 55.1276 571.883 55.599 571.523 55.9844C571.164 56.3646 570.732 56.6562 570.227 56.8594C569.721 57.0573 569.151 57.1562 568.516 57.1562C567.922 57.1562 567.378 57.0573 566.883 56.8594C566.388 56.6562 565.958 56.3646 565.594 55.9844C565.234 55.599 564.956 55.1276 564.758 54.5703C564.56 54.013 564.461 53.375 564.461 52.6562C564.461 51.7031 564.625 50.8958 564.953 50.2344C565.286 49.5677 565.76 49.0599 566.375 48.7109C566.99 48.362 567.721 48.1875 568.57 48.1875C569.367 48.1875 570.07 48.362 570.68 48.7109C571.289 49.0599 571.766 49.5677 572.109 50.2344C572.453 50.901 572.625 51.7083 572.625 52.6562ZM566.352 52.6562C566.352 53.2865 566.427 53.8255 566.578 54.2734C566.734 54.7214 566.974 55.0651 567.297 55.3047C567.62 55.5391 568.036 55.6562 568.547 55.6562C569.057 55.6562 569.474 55.5391 569.797 55.3047C570.12 55.0651 570.357 54.7214 570.508 54.2734C570.659 53.8255 570.734 53.2865 570.734 52.6562C570.734 52.026 570.659 51.4922 570.508 51.0547C570.357 50.612 570.12 50.276 569.797 50.0469C569.474 49.8125 569.055 49.6953 568.539 49.6953C567.779 49.6953 567.224 49.9505 566.875 50.4609C566.526 50.9714 566.352 51.7031 566.352 52.6562ZM579.117 48.1875C579.263 48.1875 579.422 48.1953 579.594 48.2109C579.766 48.2266 579.914 48.2474 580.039 48.2734L579.867 49.9922C579.758 49.9609 579.622 49.9375 579.461 49.9219C579.305 49.9062 579.164 49.8984 579.039 49.8984C578.711 49.8984 578.398 49.9531 578.102 50.0625C577.805 50.1667 577.542 50.3281 577.312 50.5469C577.083 50.7604 576.904 51.0286 576.773 51.3516C576.643 51.6745 576.578 52.0495 576.578 52.4766V57H574.734V48.3516H576.172L576.422 49.875H576.508C576.68 49.5677 576.893 49.2865 577.148 49.0312C577.404 48.776 577.695 48.5729 578.023 48.4219C578.357 48.2656 578.721 48.1875 579.117 48.1875ZM584.859 55.6719C585.099 55.6719 585.336 55.651 585.57 55.6094C585.805 55.5625 586.018 55.5078 586.211 55.4453V56.8359C586.008 56.9245 585.745 57 585.422 57.0625C585.099 57.125 584.763 57.1562 584.414 57.1562C583.924 57.1562 583.484 57.0755 583.094 56.9141C582.703 56.7474 582.393 56.4635 582.164 56.0625C581.935 55.6615 581.82 55.1068 581.82 54.3984V49.75H580.641V48.9297L581.906 48.2812L582.508 46.4297H583.664V48.3516H586.141V49.75H583.664V54.375C583.664 54.8125 583.773 55.138 583.992 55.3516C584.211 55.5651 584.5 55.6719 584.859 55.6719Z" fill="black"/>
<path d="M625.094 53.8906C625.094 54.5677 624.927 55.151 624.594 55.6406C624.266 56.1302 623.792 56.5052 623.172 56.7656C622.557 57.026 621.823 57.1562 620.969 57.1562C620.552 57.1562 620.154 57.1328 619.773 57.0859C619.393 57.0391 619.034 56.9714 618.695 56.8828C618.362 56.7891 618.057 56.6771 617.781 56.5469V54.7812C618.245 54.9844 618.763 55.1693 619.336 55.3359C619.909 55.4974 620.492 55.5781 621.086 55.5781C621.57 55.5781 621.971 55.5156 622.289 55.3906C622.612 55.2604 622.852 55.0781 623.008 54.8438C623.164 54.6042 623.242 54.3255 623.242 54.0078C623.242 53.6693 623.151 53.3828 622.969 53.1484C622.786 52.9141 622.51 52.7005 622.141 52.5078C621.776 52.3099 621.318 52.099 620.766 51.875C620.391 51.724 620.031 51.5521 619.688 51.3594C619.349 51.1667 619.047 50.9401 618.781 50.6797C618.516 50.4193 618.305 50.112 618.148 49.7578C617.997 49.3984 617.922 48.9766 617.922 48.4922C617.922 47.8464 618.076 47.2943 618.383 46.8359C618.695 46.3776 619.133 46.026 619.695 45.7812C620.263 45.5365 620.924 45.4141 621.68 45.4141C622.279 45.4141 622.841 45.4766 623.367 45.6016C623.898 45.7266 624.419 45.9036 624.93 46.1328L624.336 47.6406C623.867 47.4479 623.411 47.2943 622.969 47.1797C622.531 47.0651 622.083 47.0078 621.625 47.0078C621.229 47.0078 620.893 47.0677 620.617 47.1875C620.341 47.3073 620.13 47.4766 619.984 47.6953C619.844 47.9089 619.773 48.1641 619.773 48.4609C619.773 48.7943 619.854 49.0755 620.016 49.3047C620.182 49.5286 620.438 49.7344 620.781 49.9219C621.13 50.1094 621.578 50.3177 622.125 50.5469C622.755 50.8073 623.289 51.0807 623.727 51.3672C624.169 51.6536 624.508 51.9974 624.742 52.3984C624.977 52.7943 625.094 53.2917 625.094 53.8906ZM631.547 48.1875C632.573 48.1875 633.396 48.5625 634.016 49.3125C634.641 50.0625 634.953 51.1771 634.953 52.6562C634.953 53.6354 634.807 54.4609 634.516 55.1328C634.229 55.7995 633.826 56.3047 633.305 56.6484C632.789 56.987 632.188 57.1562 631.5 57.1562C631.062 57.1562 630.682 57.099 630.359 56.9844C630.036 56.8698 629.76 56.7214 629.531 56.5391C629.302 56.3516 629.109 56.1484 628.953 55.9297H628.844C628.87 56.138 628.893 56.3698 628.914 56.625C628.94 56.875 628.953 57.1042 628.953 57.3125V60.8359H627.109V48.3516H628.609L628.867 49.5469H628.953C629.115 49.3021 629.31 49.0755 629.539 48.8672C629.773 48.6589 630.055 48.4948 630.383 48.375C630.716 48.25 631.104 48.1875 631.547 48.1875ZM631.055 49.6875C630.549 49.6875 630.143 49.7891 629.836 49.9922C629.534 50.1901 629.312 50.4896 629.172 50.8906C629.036 51.2917 628.964 51.7943 628.953 52.3984V52.6562C628.953 53.2969 629.018 53.8411 629.148 54.2891C629.284 54.7318 629.505 55.0703 629.812 55.3047C630.125 55.5339 630.547 55.6484 631.078 55.6484C631.526 55.6484 631.896 55.526 632.188 55.2812C632.484 55.0365 632.706 54.6875 632.852 54.2344C632.997 53.7812 633.07 53.2474 633.07 52.6328C633.07 51.7005 632.904 50.9766 632.57 50.4609C632.242 49.9453 631.737 49.6875 631.055 49.6875ZM640.523 48.1875C641.294 48.1875 641.956 48.3464 642.508 48.6641C643.06 48.9818 643.484 49.4323 643.781 50.0156C644.078 50.599 644.227 51.2969 644.227 52.1094V53.0938H638.453C638.474 53.9323 638.698 54.5781 639.125 55.0312C639.557 55.4844 640.161 55.7109 640.938 55.7109C641.49 55.7109 641.984 55.6589 642.422 55.5547C642.865 55.4453 643.32 55.2865 643.789 55.0781V56.5703C643.357 56.7734 642.917 56.9219 642.469 57.0156C642.021 57.1094 641.484 57.1562 640.859 57.1562C640.01 57.1562 639.263 56.9922 638.617 56.6641C637.977 56.3307 637.474 55.8359 637.109 55.1797C636.75 54.5234 636.57 53.7083 636.57 52.7344C636.57 51.7656 636.734 50.9427 637.062 50.2656C637.391 49.5885 637.852 49.0729 638.445 48.7188C639.039 48.3646 639.732 48.1875 640.523 48.1875ZM640.523 49.5703C639.945 49.5703 639.477 49.7578 639.117 50.1328C638.763 50.5078 638.555 51.0573 638.492 51.7812H642.43C642.424 51.349 642.352 50.9661 642.211 50.6328C642.076 50.2995 641.867 50.0391 641.586 49.8516C641.31 49.6641 640.956 49.5703 640.523 49.5703ZM649.781 57.1562C648.964 57.1562 648.255 56.9974 647.656 56.6797C647.057 56.362 646.596 55.875 646.273 55.2188C645.951 54.5625 645.789 53.7292 645.789 52.7188C645.789 51.6667 645.966 50.8073 646.32 50.1406C646.674 49.474 647.164 48.9818 647.789 48.6641C648.419 48.3464 649.141 48.1875 649.953 48.1875C650.469 48.1875 650.935 48.2396 651.352 48.3438C651.773 48.4427 652.13 48.5651 652.422 48.7109L651.875 50.1797C651.557 50.0495 651.232 49.9401 650.898 49.8516C650.565 49.763 650.245 49.7188 649.938 49.7188C649.432 49.7188 649.01 49.8307 648.672 50.0547C648.339 50.2786 648.089 50.612 647.922 51.0547C647.76 51.4974 647.68 52.0469 647.68 52.7031C647.68 53.3385 647.763 53.875 647.93 54.3125C648.096 54.7448 648.344 55.0729 648.672 55.2969C649 55.5156 649.404 55.625 649.883 55.625C650.357 55.625 650.781 55.5677 651.156 55.4531C651.531 55.3385 651.885 55.1901 652.219 55.0078V56.6016C651.891 56.7891 651.539 56.9271 651.164 57.0156C650.789 57.1094 650.328 57.1562 649.781 57.1562ZM656.086 48.3516V57H654.25V48.3516H656.086ZM655.18 45.0391C655.461 45.0391 655.703 45.1146 655.906 45.2656C656.115 45.4167 656.219 45.6771 656.219 46.0469C656.219 46.4115 656.115 46.6719 655.906 46.8281C655.703 46.9792 655.461 47.0547 655.18 47.0547C654.888 47.0547 654.641 46.9792 654.438 46.8281C654.24 46.6719 654.141 46.4115 654.141 46.0469C654.141 45.6771 654.24 45.4167 654.438 45.2656C654.641 45.1146 654.888 45.0391 655.18 45.0391ZM662.109 48.1875C663.203 48.1875 664.029 48.4297 664.586 48.9141C665.148 49.3984 665.43 50.1536 665.43 51.1797V57H664.125L663.773 55.7734H663.711C663.466 56.0859 663.214 56.3438 662.953 56.5469C662.693 56.75 662.391 56.901 662.047 57C661.708 57.1042 661.294 57.1562 660.805 57.1562C660.289 57.1562 659.828 57.0625 659.422 56.875C659.016 56.6823 658.695 56.3906 658.461 56C658.227 55.6094 658.109 55.1146 658.109 54.5156C658.109 53.625 658.44 52.9557 659.102 52.5078C659.768 52.0599 660.773 51.8125 662.117 51.7656L663.617 51.7109V51.2578C663.617 50.6589 663.477 50.2318 663.195 49.9766C662.919 49.7214 662.529 49.5938 662.023 49.5938C661.591 49.5938 661.172 49.6562 660.766 49.7812C660.359 49.9062 659.964 50.0599 659.578 50.2422L658.984 48.9453C659.406 48.7214 659.885 48.5391 660.422 48.3984C660.964 48.2578 661.526 48.1875 662.109 48.1875ZM663.609 52.8672L662.492 52.9062C661.576 52.9375 660.932 53.0938 660.562 53.375C660.193 53.6562 660.008 54.0417 660.008 54.5312C660.008 54.9583 660.135 55.2708 660.391 55.4688C660.646 55.6615 660.982 55.7578 661.398 55.7578C662.034 55.7578 662.56 55.5781 662.977 55.2188C663.398 54.8542 663.609 54.3203 663.609 53.6172V52.8672ZM669.844 57H668V44.8438H669.844V57ZM684.281 52.6562C684.281 53.375 684.188 54.013 684 54.5703C683.812 55.1276 683.539 55.599 683.18 55.9844C682.82 56.3646 682.388 56.6562 681.883 56.8594C681.378 57.0573 680.807 57.1562 680.172 57.1562C679.578 57.1562 679.034 57.0573 678.539 56.8594C678.044 56.6562 677.615 56.3646 677.25 55.9844C676.891 55.599 676.612 55.1276 676.414 54.5703C676.216 54.013 676.117 53.375 676.117 52.6562C676.117 51.7031 676.281 50.8958 676.609 50.2344C676.943 49.5677 677.417 49.0599 678.031 48.7109C678.646 48.362 679.378 48.1875 680.227 48.1875C681.023 48.1875 681.727 48.362 682.336 48.7109C682.945 49.0599 683.422 49.5677 683.766 50.2344C684.109 50.901 684.281 51.7083 684.281 52.6562ZM678.008 52.6562C678.008 53.2865 678.083 53.8255 678.234 54.2734C678.391 54.7214 678.63 55.0651 678.953 55.3047C679.276 55.5391 679.693 55.6562 680.203 55.6562C680.714 55.6562 681.13 55.5391 681.453 55.3047C681.776 55.0651 682.013 54.7214 682.164 54.2734C682.315 53.8255 682.391 53.2865 682.391 52.6562C682.391 52.026 682.315 51.4922 682.164 51.0547C682.013 50.612 681.776 50.276 681.453 50.0469C681.13 49.8125 680.711 49.6953 680.195 49.6953C679.435 49.6953 678.88 49.9505 678.531 50.4609C678.182 50.9714 678.008 51.7031 678.008 52.6562ZM690.711 49.75H688.609V57H686.773V49.75H685.359V48.8672L686.773 48.3281V47.7266C686.773 46.9922 686.888 46.4089 687.117 45.9766C687.352 45.5443 687.685 45.2344 688.117 45.0469C688.555 44.8542 689.076 44.7578 689.68 44.7578C690.076 44.7578 690.438 44.7917 690.766 44.8594C691.094 44.9219 691.37 44.9948 691.594 45.0781L691.117 46.4688C690.94 46.4115 690.742 46.3594 690.523 46.3125C690.305 46.2604 690.07 46.2344 689.82 46.2344C689.404 46.2344 689.096 46.3646 688.898 46.625C688.706 46.8854 688.609 47.2656 688.609 47.7656V48.3516H690.711V49.75ZM696.5 49.75H694.398V57H692.562V49.75H691.148V48.8672L692.562 48.3281V47.7266C692.562 46.9922 692.677 46.4089 692.906 45.9766C693.141 45.5443 693.474 45.2344 693.906 45.0469C694.344 44.8542 694.865 44.7578 695.469 44.7578C695.865 44.7578 696.227 44.7917 696.555 44.8594C696.883 44.9219 697.159 44.9948 697.383 45.0781L696.906 46.4688C696.729 46.4115 696.531 46.3594 696.312 46.3125C696.094 46.2604 695.859 46.2344 695.609 46.2344C695.193 46.2344 694.885 46.3646 694.688 46.625C694.495 46.8854 694.398 47.2656 694.398 47.7656V48.3516H696.5V49.75ZM701.414 48.1875C702.185 48.1875 702.846 48.3464 703.398 48.6641C703.951 48.9818 704.375 49.4323 704.672 50.0156C704.969 50.599 705.117 51.2969 705.117 52.1094V53.0938H699.344C699.365 53.9323 699.589 54.5781 700.016 55.0312C700.448 55.4844 701.052 55.7109 701.828 55.7109C702.38 55.7109 702.875 55.6589 703.312 55.5547C703.755 55.4453 704.211 55.2865 704.68 55.0781V56.5703C704.247 56.7734 703.807 56.9219 703.359 57.0156C702.911 57.1094 702.375 57.1562 701.75 57.1562C700.901 57.1562 700.154 56.9922 699.508 56.6641C698.867 56.3307 698.365 55.8359 698 55.1797C697.641 54.5234 697.461 53.7083 697.461 52.7344C697.461 51.7656 697.625 50.9427 697.953 50.2656C698.281 49.5885 698.742 49.0729 699.336 48.7188C699.93 48.3646 700.622 48.1875 701.414 48.1875ZM701.414 49.5703C700.836 49.5703 700.367 49.7578 700.008 50.1328C699.654 50.5078 699.445 51.0573 699.383 51.7812H703.32C703.315 51.349 703.242 50.9661 703.102 50.6328C702.966 50.2995 702.758 50.0391 702.477 49.8516C702.201 49.6641 701.846 49.5703 701.414 49.5703ZM711.57 48.1875C711.716 48.1875 711.875 48.1953 712.047 48.2109C712.219 48.2266 712.367 48.2474 712.492 48.2734L712.32 49.9922C712.211 49.9609 712.076 49.9375 711.914 49.9219C711.758 49.9062 711.617 49.8984 711.492 49.8984C711.164 49.8984 710.852 49.9531 710.555 50.0625C710.258 50.1667 709.995 50.3281 709.766 50.5469C709.536 50.7604 709.357 51.0286 709.227 51.3516C709.096 51.6745 709.031 52.0495 709.031 52.4766V57H707.188V48.3516H708.625L708.875 49.875H708.961C709.133 49.5677 709.346 49.2865 709.602 49.0312C709.857 48.776 710.148 48.5729 710.477 48.4219C710.81 48.2656 711.174 48.1875 711.57 48.1875ZM719.906 54.5312C719.906 55.099 719.768 55.5781 719.492 55.9688C719.216 56.3594 718.812 56.6562 718.281 56.8594C717.755 57.0573 717.109 57.1562 716.344 57.1562C715.74 57.1562 715.219 57.112 714.781 57.0234C714.349 56.9401 713.94 56.8099 713.555 56.6328V55.0469C713.966 55.2396 714.427 55.4062 714.938 55.5469C715.453 55.6875 715.94 55.7578 716.398 55.7578C717.003 55.7578 717.438 55.6641 717.703 55.4766C717.969 55.2839 718.102 55.0286 718.102 54.7109C718.102 54.5234 718.047 54.3568 717.938 54.2109C717.833 54.0599 717.635 53.9062 717.344 53.75C717.057 53.5885 716.635 53.3958 716.078 53.1719C715.531 52.9531 715.07 52.7344 714.695 52.5156C714.32 52.2969 714.036 52.0339 713.844 51.7266C713.651 51.4141 713.555 51.0156 713.555 50.5312C713.555 49.7656 713.857 49.1849 714.461 48.7891C715.07 48.388 715.875 48.1875 716.875 48.1875C717.406 48.1875 717.906 48.2422 718.375 48.3516C718.849 48.4557 719.312 48.6094 719.766 48.8125L719.188 50.1953C718.797 50.0234 718.404 49.8828 718.008 49.7734C717.617 49.6589 717.219 49.6016 716.812 49.6016C716.339 49.6016 715.977 49.6745 715.727 49.8203C715.482 49.9661 715.359 50.1745 715.359 50.4453C715.359 50.6484 715.419 50.8203 715.539 50.9609C715.659 51.1016 715.865 51.2422 716.156 51.3828C716.453 51.5234 716.865 51.6979 717.391 51.9062C717.906 52.1042 718.352 52.3125 718.727 52.5312C719.107 52.7448 719.398 53.0078 719.602 53.3203C719.805 53.6328 719.906 54.0365 719.906 54.5312Z" fill="black"/>
<rect width="12" height="12" transform="matrix(0 -1 1 0 253 53)" fill="white"/>
<path d="M264 45L259 50L254 45L254.888 44.1125L259 48.225L263.113 44.1125L264 45Z" fill="black"/>
<path d="M226.359 57H224.5V45.5781H230.953V47.1562H226.359V50.7188H230.656V52.2891H226.359V57ZM234.688 57H232.844V44.8438H234.688V57ZM236.008 48.3516H238.008L239.781 53.2891C239.859 53.513 239.93 53.7344 239.992 53.9531C240.06 54.1667 240.117 54.3776 240.164 54.5859C240.216 54.7943 240.258 55.0026 240.289 55.2109H240.336C240.388 54.9401 240.461 54.638 240.555 54.3047C240.654 53.9661 240.763 53.6276 240.883 53.2891L242.586 48.3516H244.562L240.852 58.1875C240.638 58.75 240.375 59.2292 240.062 59.625C239.755 60.026 239.391 60.3281 238.969 60.5312C238.547 60.7396 238.065 60.8438 237.523 60.8438C237.263 60.8438 237.036 60.8281 236.844 60.7969C236.651 60.7708 236.487 60.7422 236.352 60.7109V59.2422C236.461 59.2682 236.599 59.2917 236.766 59.3125C236.932 59.3333 237.104 59.3438 237.281 59.3438C237.609 59.3438 237.893 59.2786 238.133 59.1484C238.372 59.0182 238.576 58.8333 238.742 58.5938C238.909 58.3594 239.047 58.0911 239.156 57.7891L239.461 56.9766L236.008 48.3516Z" fill="black"/>
<g filter="url(#filter1_d_59_1348)">
<rect x="20" y="94" width="1440" height="54" fill="white"/>
</g>
<line x1="416.5" y1="112" x2="416.5" y2="134" stroke="#E2E4E7"/>
<rect width="12" height="12" transform="matrix(0 -1 1 0 98 127)" fill="white"/>
<path d="M109 119L104 124L99 119L99.8875 118.113L104 122.225L108.113 118.113L109 119Z" fill="black"/>
<path d="M51.5 118.578H54.8984C56.3724 118.578 57.4844 118.792 58.2344 119.219C58.9844 119.646 59.3594 120.383 59.3594 121.43C59.3594 121.867 59.2812 122.263 59.125 122.617C58.974 122.966 58.7526 123.255 58.4609 123.484C58.1693 123.708 57.8099 123.859 57.3828 123.938V124.016C57.8255 124.094 58.2188 124.232 58.5625 124.43C58.9115 124.628 59.1849 124.911 59.3828 125.281C59.5859 125.651 59.6875 126.13 59.6875 126.719C59.6875 127.417 59.5208 128.01 59.1875 128.5C58.8594 128.99 58.388 129.362 57.7734 129.617C57.1641 129.872 56.4401 130 55.6016 130H51.5V118.578ZM53.375 123.289H55.1719C56.0208 123.289 56.6094 123.151 56.9375 122.875C57.2656 122.599 57.4297 122.195 57.4297 121.664C57.4297 121.122 57.2344 120.732 56.8438 120.492C56.4583 120.253 55.8438 120.133 55 120.133H53.375V123.289ZM53.375 124.805V128.43H55.3516C56.2266 128.43 56.8411 128.26 57.1953 127.922C57.5495 127.583 57.7266 127.125 57.7266 126.547C57.7266 126.193 57.6458 125.885 57.4844 125.625C57.3281 125.365 57.0703 125.164 56.7109 125.023C56.3516 124.878 55.8672 124.805 55.2578 124.805H53.375ZM69.5156 125.656C69.5156 126.375 69.4219 127.013 69.2344 127.57C69.0469 128.128 68.7734 128.599 68.4141 128.984C68.0547 129.365 67.6224 129.656 67.1172 129.859C66.612 130.057 66.0417 130.156 65.4062 130.156C64.8125 130.156 64.2682 130.057 63.7734 129.859C63.2786 129.656 62.849 129.365 62.4844 128.984C62.125 128.599 61.8464 128.128 61.6484 127.57C61.4505 127.013 61.3516 126.375 61.3516 125.656C61.3516 124.703 61.5156 123.896 61.8438 123.234C62.1771 122.568 62.651 122.06 63.2656 121.711C63.8802 121.362 64.612 121.188 65.4609 121.188C66.2578 121.188 66.9609 121.362 67.5703 121.711C68.1797 122.06 68.6562 122.568 69 123.234C69.3438 123.901 69.5156 124.708 69.5156 125.656ZM63.2422 125.656C63.2422 126.286 63.3177 126.826 63.4688 127.273C63.625 127.721 63.8646 128.065 64.1875 128.305C64.5104 128.539 64.9271 128.656 65.4375 128.656C65.9479 128.656 66.3646 128.539 66.6875 128.305C67.0104 128.065 67.2474 127.721 67.3984 127.273C67.5495 126.826 67.625 126.286 67.625 125.656C67.625 125.026 67.5495 124.492 67.3984 124.055C67.2474 123.612 67.0104 123.276 66.6875 123.047C66.3646 122.812 65.9453 122.695 65.4297 122.695C64.6693 122.695 64.1146 122.951 63.7656 123.461C63.4167 123.971 63.2422 124.703 63.2422 125.656ZM79.2812 125.656C79.2812 126.375 79.1875 127.013 79 127.57C78.8125 128.128 78.5391 128.599 78.1797 128.984C77.8203 129.365 77.388 129.656 76.8828 129.859C76.3776 130.057 75.8073 130.156 75.1719 130.156C74.5781 130.156 74.0339 130.057 73.5391 129.859C73.0443 129.656 72.6146 129.365 72.25 128.984C71.8906 128.599 71.612 128.128 71.4141 127.57C71.2161 127.013 71.1172 126.375 71.1172 125.656C71.1172 124.703 71.2812 123.896 71.6094 123.234C71.9427 122.568 72.4167 122.06 73.0312 121.711C73.6458 121.362 74.3776 121.188 75.2266 121.188C76.0234 121.188 76.7266 121.362 77.3359 121.711C77.9453 122.06 78.4219 122.568 78.7656 123.234C79.1094 123.901 79.2812 124.708 79.2812 125.656ZM73.0078 125.656C73.0078 126.286 73.0833 126.826 73.2344 127.273C73.3906 127.721 73.6302 128.065 73.9531 128.305C74.276 128.539 74.6927 128.656 75.2031 128.656C75.7135 128.656 76.1302 128.539 76.4531 128.305C76.776 128.065 77.013 127.721 77.1641 127.273C77.3151 126.826 77.3906 126.286 77.3906 125.656C77.3906 125.026 77.3151 124.492 77.1641 124.055C77.013 123.612 76.776 123.276 76.4531 123.047C76.1302 122.812 75.7109 122.695 75.1953 122.695C74.4349 122.695 73.8802 122.951 73.5312 123.461C73.1823 123.971 73.0078 124.703 73.0078 125.656ZM83.2266 117.844V123.719C83.2266 123.984 83.2161 124.276 83.1953 124.594C83.1745 124.906 83.1536 125.201 83.1328 125.477H83.1719C83.3073 125.294 83.4688 125.081 83.6562 124.836C83.849 124.591 84.0312 124.378 84.2031 124.195L86.8438 121.352H88.9531L85.4922 125.07L89.1797 130H87.0234L84.2578 126.203L83.2266 127.086V130H81.3906V117.844H83.2266Z" fill="black"/>
<rect width="12" height="12" transform="matrix(0 -1 1 0 181 127)" fill="white"/>
<path d="M192 119L187 124L182 119L182.888 118.113L187 122.225L191.113 118.113L192 119Z" fill="black"/>
<path d="M143.82 119.578C145.294 119.578 146.37 119.88 147.047 120.484C147.724 121.089 148.062 121.935 148.062 123.023C148.062 123.518 147.984 123.99 147.828 124.438C147.677 124.88 147.427 125.273 147.078 125.617C146.729 125.956 146.268 126.224 145.695 126.422C145.128 126.62 144.427 126.719 143.594 126.719H142.375V131H140.5V119.578H143.82ZM143.695 121.133H142.375V125.156H143.398C143.987 125.156 144.487 125.089 144.898 124.953C145.31 124.812 145.622 124.591 145.836 124.289C146.049 123.987 146.156 123.589 146.156 123.094C146.156 122.432 145.956 121.94 145.555 121.617C145.159 121.294 144.539 121.133 143.695 121.133ZM152 131H150.156V118.844H152V131ZM158.016 122.188C159.109 122.188 159.935 122.43 160.492 122.914C161.055 123.398 161.336 124.154 161.336 125.18V131H160.031L159.68 129.773H159.617C159.372 130.086 159.12 130.344 158.859 130.547C158.599 130.75 158.297 130.901 157.953 131C157.615 131.104 157.201 131.156 156.711 131.156C156.195 131.156 155.734 131.062 155.328 130.875C154.922 130.682 154.602 130.391 154.367 130C154.133 129.609 154.016 129.115 154.016 128.516C154.016 127.625 154.346 126.956 155.008 126.508C155.674 126.06 156.68 125.812 158.023 125.766L159.523 125.711V125.258C159.523 124.659 159.383 124.232 159.102 123.977C158.826 123.721 158.435 123.594 157.93 123.594C157.497 123.594 157.078 123.656 156.672 123.781C156.266 123.906 155.87 124.06 155.484 124.242L154.891 122.945C155.312 122.721 155.792 122.539 156.328 122.398C156.87 122.258 157.432 122.188 158.016 122.188ZM159.516 126.867L158.398 126.906C157.482 126.938 156.839 127.094 156.469 127.375C156.099 127.656 155.914 128.042 155.914 128.531C155.914 128.958 156.042 129.271 156.297 129.469C156.552 129.661 156.888 129.758 157.305 129.758C157.94 129.758 158.466 129.578 158.883 129.219C159.305 128.854 159.516 128.32 159.516 127.617V126.867ZM168.414 122.188C169.388 122.188 170.146 122.44 170.688 122.945C171.234 123.445 171.508 124.25 171.508 125.359V131H169.672V125.703C169.672 125.031 169.534 124.529 169.258 124.195C168.982 123.857 168.555 123.688 167.977 123.688C167.138 123.688 166.555 123.945 166.227 124.461C165.904 124.977 165.742 125.724 165.742 126.703V131H163.906V122.352H165.336L165.594 123.523H165.695C165.883 123.221 166.115 122.974 166.391 122.781C166.672 122.583 166.984 122.435 167.328 122.336C167.677 122.237 168.039 122.188 168.414 122.188Z" fill="black"/>
<rect x="281" y="94" width="119" height="54" fill="#F9FAFA"/>
<rect width="12" height="12" transform="matrix(0 -1 1 0 374 127)" fill="white"/>
<path d="M385 119L380 124L375 119L375.888 118.113L380 122.225L384.113 118.113L385 119Z" fill="black"/>
<path d="M304.578 131L303.461 127.828H299.094L297.977 131H296L300.25 119.531H302.328L306.57 131H304.578ZM302.977 126.219L301.891 123.094C301.849 122.958 301.789 122.768 301.711 122.523C301.633 122.273 301.555 122.021 301.477 121.766C301.398 121.505 301.333 121.286 301.281 121.109C301.229 121.323 301.164 121.562 301.086 121.828C301.013 122.089 300.94 122.333 300.867 122.562C300.799 122.792 300.747 122.969 300.711 123.094L299.617 126.219H302.977ZM311.336 122.188C312.107 122.188 312.768 122.346 313.32 122.664C313.872 122.982 314.297 123.432 314.594 124.016C314.891 124.599 315.039 125.297 315.039 126.109V127.094H309.266C309.286 127.932 309.51 128.578 309.938 129.031C310.37 129.484 310.974 129.711 311.75 129.711C312.302 129.711 312.797 129.659 313.234 129.555C313.677 129.445 314.133 129.286 314.602 129.078V130.57C314.169 130.773 313.729 130.922 313.281 131.016C312.833 131.109 312.297 131.156 311.672 131.156C310.823 131.156 310.076 130.992 309.43 130.664C308.789 130.331 308.286 129.836 307.922 129.18C307.562 128.523 307.383 127.708 307.383 126.734C307.383 125.766 307.547 124.943 307.875 124.266C308.203 123.589 308.664 123.073 309.258 122.719C309.852 122.365 310.544 122.188 311.336 122.188ZM311.336 123.57C310.758 123.57 310.289 123.758 309.93 124.133C309.576 124.508 309.367 125.057 309.305 125.781H313.242C313.237 125.349 313.164 124.966 313.023 124.633C312.888 124.299 312.68 124.039 312.398 123.852C312.122 123.664 311.768 123.57 311.336 123.57ZM321.492 122.188C321.638 122.188 321.797 122.195 321.969 122.211C322.141 122.227 322.289 122.247 322.414 122.273L322.242 123.992C322.133 123.961 321.997 123.938 321.836 123.922C321.68 123.906 321.539 123.898 321.414 123.898C321.086 123.898 320.773 123.953 320.477 124.062C320.18 124.167 319.917 124.328 319.688 124.547C319.458 124.76 319.279 125.029 319.148 125.352C319.018 125.674 318.953 126.049 318.953 126.477V131H317.109V122.352H318.547L318.797 123.875H318.883C319.055 123.568 319.268 123.286 319.523 123.031C319.779 122.776 320.07 122.573 320.398 122.422C320.732 122.266 321.096 122.188 321.492 122.188ZM331.672 126.656C331.672 127.375 331.578 128.013 331.391 128.57C331.203 129.128 330.93 129.599 330.57 129.984C330.211 130.365 329.779 130.656 329.273 130.859C328.768 131.057 328.198 131.156 327.562 131.156C326.969 131.156 326.424 131.057 325.93 130.859C325.435 130.656 325.005 130.365 324.641 129.984C324.281 129.599 324.003 129.128 323.805 128.57C323.607 128.013 323.508 127.375 323.508 126.656C323.508 125.703 323.672 124.896 324 124.234C324.333 123.568 324.807 123.06 325.422 122.711C326.036 122.362 326.768 122.188 327.617 122.188C328.414 122.188 329.117 122.362 329.727 122.711C330.336 123.06 330.812 123.568 331.156 124.234C331.5 124.901 331.672 125.708 331.672 126.656ZM325.398 126.656C325.398 127.286 325.474 127.826 325.625 128.273C325.781 128.721 326.021 129.065 326.344 129.305C326.667 129.539 327.083 129.656 327.594 129.656C328.104 129.656 328.521 129.539 328.844 129.305C329.167 129.065 329.404 128.721 329.555 128.273C329.706 127.826 329.781 127.286 329.781 126.656C329.781 126.026 329.706 125.492 329.555 125.055C329.404 124.612 329.167 124.276 328.844 124.047C328.521 123.812 328.102 123.695 327.586 123.695C326.826 123.695 326.271 123.951 325.922 124.461C325.573 124.971 325.398 125.703 325.398 126.656ZM338.219 122.188C339.245 122.188 340.068 122.562 340.688 123.312C341.312 124.062 341.625 125.177 341.625 126.656C341.625 127.635 341.479 128.461 341.188 129.133C340.901 129.799 340.497 130.305 339.977 130.648C339.461 130.987 338.859 131.156 338.172 131.156C337.734 131.156 337.354 131.099 337.031 130.984C336.708 130.87 336.432 130.721 336.203 130.539C335.974 130.352 335.781 130.148 335.625 129.93H335.516C335.542 130.138 335.565 130.37 335.586 130.625C335.612 130.875 335.625 131.104 335.625 131.312V134.836H333.781V122.352H335.281L335.539 123.547H335.625C335.786 123.302 335.982 123.076 336.211 122.867C336.445 122.659 336.727 122.495 337.055 122.375C337.388 122.25 337.776 122.188 338.219 122.188ZM337.727 123.688C337.221 123.688 336.815 123.789 336.508 123.992C336.206 124.19 335.984 124.49 335.844 124.891C335.708 125.292 335.635 125.794 335.625 126.398V126.656C335.625 127.297 335.69 127.841 335.82 128.289C335.956 128.732 336.177 129.07 336.484 129.305C336.797 129.534 337.219 129.648 337.75 129.648C338.198 129.648 338.568 129.526 338.859 129.281C339.156 129.036 339.378 128.688 339.523 128.234C339.669 127.781 339.742 127.247 339.742 126.633C339.742 125.701 339.576 124.977 339.242 124.461C338.914 123.945 338.409 123.688 337.727 123.688ZM345.594 131H343.75V118.844H345.594V131ZM351.609 122.188C352.703 122.188 353.529 122.43 354.086 122.914C354.648 123.398 354.93 124.154 354.93 125.18V131H353.625L353.273 129.773H353.211C352.966 130.086 352.714 130.344 352.453 130.547C352.193 130.75 351.891 130.901 351.547 131C351.208 131.104 350.794 131.156 350.305 131.156C349.789 131.156 349.328 131.062 348.922 130.875C348.516 130.682 348.195 130.391 347.961 130C347.727 129.609 347.609 129.115 347.609 128.516C347.609 127.625 347.94 126.956 348.602 126.508C349.268 126.06 350.273 125.812 351.617 125.766L353.117 125.711V125.258C353.117 124.659 352.977 124.232 352.695 123.977C352.419 123.721 352.029 123.594 351.523 123.594C351.091 123.594 350.672 123.656 350.266 123.781C349.859 123.906 349.464 124.06 349.078 124.242L348.484 122.945C348.906 122.721 349.385 122.539 349.922 122.398C350.464 122.258 351.026 122.188 351.609 122.188ZM353.109 126.867L351.992 126.906C351.076 126.938 350.432 127.094 350.062 127.375C349.693 127.656 349.508 128.042 349.508 128.531C349.508 128.958 349.635 129.271 349.891 129.469C350.146 129.661 350.482 129.758 350.898 129.758C351.534 129.758 352.06 129.578 352.477 129.219C352.898 128.854 353.109 128.32 353.109 127.617V126.867ZM362.008 122.188C362.982 122.188 363.74 122.44 364.281 122.945C364.828 123.445 365.102 124.25 365.102 125.359V131H363.266V125.703C363.266 125.031 363.128 124.529 362.852 124.195C362.576 123.857 362.148 123.688 361.57 123.688C360.732 123.688 360.148 123.945 359.82 124.461C359.497 124.977 359.336 125.724 359.336 126.703V131H357.5V122.352H358.93L359.188 123.523H359.289C359.477 123.221 359.708 122.974 359.984 122.781C360.266 122.583 360.578 122.435 360.922 122.336C361.271 122.237 361.633 122.188 362.008 122.188Z" fill="black"/>
<path d="M452.367 121.008C451.82 121.008 451.331 121.107 450.898 121.305C450.471 121.503 450.109 121.789 449.812 122.164C449.516 122.534 449.289 122.984 449.133 123.516C448.977 124.042 448.898 124.635 448.898 125.297C448.898 126.182 449.023 126.945 449.273 127.586C449.523 128.221 449.904 128.711 450.414 129.055C450.924 129.393 451.57 129.562 452.352 129.562C452.836 129.562 453.307 129.516 453.766 129.422C454.224 129.328 454.698 129.201 455.188 129.039V130.633C454.724 130.815 454.255 130.948 453.781 131.031C453.307 131.115 452.76 131.156 452.141 131.156C450.974 131.156 450.005 130.914 449.234 130.43C448.469 129.945 447.896 129.263 447.516 128.383C447.141 127.503 446.953 126.471 446.953 125.289C446.953 124.424 447.073 123.633 447.312 122.914C447.552 122.195 447.901 121.576 448.359 121.055C448.818 120.529 449.383 120.125 450.055 119.844C450.732 119.557 451.505 119.414 452.375 119.414C452.948 119.414 453.51 119.479 454.062 119.609C454.62 119.734 455.135 119.914 455.609 120.148L454.953 121.695C454.557 121.508 454.143 121.346 453.711 121.211C453.279 121.076 452.831 121.008 452.367 121.008ZM464.992 122.352V131H463.547L463.297 129.836H463.195C463.013 130.133 462.781 130.38 462.5 130.578C462.219 130.771 461.906 130.914 461.562 131.008C461.219 131.107 460.857 131.156 460.477 131.156C459.826 131.156 459.268 131.047 458.805 130.828C458.346 130.604 457.995 130.26 457.75 129.797C457.505 129.333 457.383 128.734 457.383 128V122.352H459.227V127.656C459.227 128.328 459.362 128.831 459.633 129.164C459.909 129.497 460.336 129.664 460.914 129.664C461.471 129.664 461.914 129.549 462.242 129.32C462.57 129.091 462.802 128.753 462.938 128.305C463.078 127.857 463.148 127.307 463.148 126.656V122.352H464.992ZM473.438 128.531C473.438 129.099 473.299 129.578 473.023 129.969C472.747 130.359 472.344 130.656 471.812 130.859C471.286 131.057 470.641 131.156 469.875 131.156C469.271 131.156 468.75 131.112 468.312 131.023C467.88 130.94 467.471 130.81 467.086 130.633V129.047C467.497 129.24 467.958 129.406 468.469 129.547C468.984 129.688 469.471 129.758 469.93 129.758C470.534 129.758 470.969 129.664 471.234 129.477C471.5 129.284 471.633 129.029 471.633 128.711C471.633 128.523 471.578 128.357 471.469 128.211C471.365 128.06 471.167 127.906 470.875 127.75C470.589 127.589 470.167 127.396 469.609 127.172C469.062 126.953 468.602 126.734 468.227 126.516C467.852 126.297 467.568 126.034 467.375 125.727C467.182 125.414 467.086 125.016 467.086 124.531C467.086 123.766 467.388 123.185 467.992 122.789C468.602 122.388 469.406 122.188 470.406 122.188C470.938 122.188 471.438 122.242 471.906 122.352C472.38 122.456 472.844 122.609 473.297 122.812L472.719 124.195C472.328 124.023 471.935 123.883 471.539 123.773C471.148 123.659 470.75 123.602 470.344 123.602C469.87 123.602 469.508 123.674 469.258 123.82C469.013 123.966 468.891 124.174 468.891 124.445C468.891 124.648 468.951 124.82 469.07 124.961C469.19 125.102 469.396 125.242 469.688 125.383C469.984 125.523 470.396 125.698 470.922 125.906C471.438 126.104 471.883 126.312 472.258 126.531C472.638 126.745 472.93 127.008 473.133 127.32C473.336 127.633 473.438 128.036 473.438 128.531ZM478.641 129.672C478.88 129.672 479.117 129.651 479.352 129.609C479.586 129.562 479.799 129.508 479.992 129.445V130.836C479.789 130.924 479.526 131 479.203 131.062C478.88 131.125 478.544 131.156 478.195 131.156C477.706 131.156 477.266 131.076 476.875 130.914C476.484 130.747 476.174 130.464 475.945 130.062C475.716 129.661 475.602 129.107 475.602 128.398V123.75H474.422V122.93L475.688 122.281L476.289 120.43H477.445V122.352H479.922V123.75H477.445V128.375C477.445 128.812 477.555 129.138 477.773 129.352C477.992 129.565 478.281 129.672 478.641 129.672ZM489.406 126.656C489.406 127.375 489.312 128.013 489.125 128.57C488.938 129.128 488.664 129.599 488.305 129.984C487.945 130.365 487.513 130.656 487.008 130.859C486.503 131.057 485.932 131.156 485.297 131.156C484.703 131.156 484.159 131.057 483.664 130.859C483.169 130.656 482.74 130.365 482.375 129.984C482.016 129.599 481.737 129.128 481.539 128.57C481.341 128.013 481.242 127.375 481.242 126.656C481.242 125.703 481.406 124.896 481.734 124.234C482.068 123.568 482.542 123.06 483.156 122.711C483.771 122.362 484.503 122.188 485.352 122.188C486.148 122.188 486.852 122.362 487.461 122.711C488.07 123.06 488.547 123.568 488.891 124.234C489.234 124.901 489.406 125.708 489.406 126.656ZM483.133 126.656C483.133 127.286 483.208 127.826 483.359 128.273C483.516 128.721 483.755 129.065 484.078 129.305C484.401 129.539 484.818 129.656 485.328 129.656C485.839 129.656 486.255 129.539 486.578 129.305C486.901 129.065 487.138 128.721 487.289 128.273C487.44 127.826 487.516 127.286 487.516 126.656C487.516 126.026 487.44 125.492 487.289 125.055C487.138 124.612 486.901 124.276 486.578 124.047C486.255 123.812 485.836 123.695 485.32 123.695C484.56 123.695 484.005 123.951 483.656 124.461C483.307 124.971 483.133 125.703 483.133 126.656ZM501.289 122.188C502.258 122.188 502.987 122.438 503.477 122.938C503.971 123.438 504.219 124.24 504.219 125.344V131H502.383V125.672C502.383 125.016 502.255 124.521 502 124.188C501.745 123.854 501.357 123.688 500.836 123.688C500.107 123.688 499.581 123.922 499.258 124.391C498.94 124.854 498.781 125.529 498.781 126.414V131H496.945V125.672C496.945 125.234 496.888 124.87 496.773 124.578C496.664 124.281 496.495 124.06 496.266 123.914C496.036 123.763 495.747 123.688 495.398 123.688C494.893 123.688 494.49 123.802 494.188 124.031C493.891 124.26 493.677 124.599 493.547 125.047C493.417 125.49 493.352 126.034 493.352 126.68V131H491.516V122.352H492.945L493.203 123.516H493.305C493.482 123.214 493.701 122.966 493.961 122.773C494.227 122.576 494.521 122.43 494.844 122.336C495.167 122.237 495.503 122.188 495.852 122.188C496.497 122.188 497.042 122.302 497.484 122.531C497.927 122.755 498.258 123.099 498.477 123.562H498.617C498.888 123.094 499.266 122.747 499.75 122.523C500.234 122.299 500.747 122.188 501.289 122.188ZM510.227 122.188C510.997 122.188 511.659 122.346 512.211 122.664C512.763 122.982 513.188 123.432 513.484 124.016C513.781 124.599 513.93 125.297 513.93 126.109V127.094H508.156C508.177 127.932 508.401 128.578 508.828 129.031C509.26 129.484 509.865 129.711 510.641 129.711C511.193 129.711 511.688 129.659 512.125 129.555C512.568 129.445 513.023 129.286 513.492 129.078V130.57C513.06 130.773 512.62 130.922 512.172 131.016C511.724 131.109 511.188 131.156 510.562 131.156C509.714 131.156 508.966 130.992 508.32 130.664C507.68 130.331 507.177 129.836 506.812 129.18C506.453 128.523 506.273 127.708 506.273 126.734C506.273 125.766 506.438 124.943 506.766 124.266C507.094 123.589 507.555 123.073 508.148 122.719C508.742 122.365 509.435 122.188 510.227 122.188ZM510.227 123.57C509.648 123.57 509.18 123.758 508.82 124.133C508.466 124.508 508.258 125.057 508.195 125.781H512.133C512.128 125.349 512.055 124.966 511.914 124.633C511.779 124.299 511.57 124.039 511.289 123.852C511.013 123.664 510.659 123.57 510.227 123.57ZM520.383 122.188C520.529 122.188 520.688 122.195 520.859 122.211C521.031 122.227 521.18 122.247 521.305 122.273L521.133 123.992C521.023 123.961 520.888 123.938 520.727 123.922C520.57 123.906 520.43 123.898 520.305 123.898C519.977 123.898 519.664 123.953 519.367 124.062C519.07 124.167 518.807 124.328 518.578 124.547C518.349 124.76 518.169 125.029 518.039 125.352C517.909 125.674 517.844 126.049 517.844 126.477V131H516V122.352H517.438L517.688 123.875H517.773C517.945 123.568 518.159 123.286 518.414 123.031C518.669 122.776 518.961 122.573 519.289 122.422C519.622 122.266 519.987 122.188 520.383 122.188ZM532.875 128.531C532.875 129.099 532.737 129.578 532.461 129.969C532.185 130.359 531.781 130.656 531.25 130.859C530.724 131.057 530.078 131.156 529.312 131.156C528.708 131.156 528.188 131.112 527.75 131.023C527.318 130.94 526.909 130.81 526.523 130.633V129.047C526.935 129.24 527.396 129.406 527.906 129.547C528.422 129.688 528.909 129.758 529.367 129.758C529.971 129.758 530.406 129.664 530.672 129.477C530.938 129.284 531.07 129.029 531.07 128.711C531.07 128.523 531.016 128.357 530.906 128.211C530.802 128.06 530.604 127.906 530.312 127.75C530.026 127.589 529.604 127.396 529.047 127.172C528.5 126.953 528.039 126.734 527.664 126.516C527.289 126.297 527.005 126.034 526.812 125.727C526.62 125.414 526.523 125.016 526.523 124.531C526.523 123.766 526.826 123.185 527.43 122.789C528.039 122.388 528.844 122.188 529.844 122.188C530.375 122.188 530.875 122.242 531.344 122.352C531.818 122.456 532.281 122.609 532.734 122.812L532.156 124.195C531.766 124.023 531.372 123.883 530.977 123.773C530.586 123.659 530.188 123.602 529.781 123.602C529.307 123.602 528.945 123.674 528.695 123.82C528.451 123.966 528.328 124.174 528.328 124.445C528.328 124.648 528.388 124.82 528.508 124.961C528.628 125.102 528.833 125.242 529.125 125.383C529.422 125.523 529.833 125.698 530.359 125.906C530.875 126.104 531.32 126.312 531.695 126.531C532.076 126.745 532.367 127.008 532.57 127.32C532.773 127.633 532.875 128.036 532.875 128.531ZM542.398 122.352V131H540.953L540.703 129.836H540.602C540.419 130.133 540.188 130.38 539.906 130.578C539.625 130.771 539.312 130.914 538.969 131.008C538.625 131.107 538.263 131.156 537.883 131.156C537.232 131.156 536.674 131.047 536.211 130.828C535.753 130.604 535.401 130.26 535.156 129.797C534.911 129.333 534.789 128.734 534.789 128V122.352H536.633V127.656C536.633 128.328 536.768 128.831 537.039 129.164C537.315 129.497 537.742 129.664 538.32 129.664C538.878 129.664 539.32 129.549 539.648 129.32C539.977 129.091 540.208 128.753 540.344 128.305C540.484 127.857 540.555 127.307 540.555 126.656V122.352H542.398ZM549.469 122.188C550.495 122.188 551.318 122.562 551.938 123.312C552.562 124.062 552.875 125.177 552.875 126.656C552.875 127.635 552.729 128.461 552.438 129.133C552.151 129.799 551.747 130.305 551.227 130.648C550.711 130.987 550.109 131.156 549.422 131.156C548.984 131.156 548.604 131.099 548.281 130.984C547.958 130.87 547.682 130.721 547.453 130.539C547.224 130.352 547.031 130.148 546.875 129.93H546.766C546.792 130.138 546.815 130.37 546.836 130.625C546.862 130.875 546.875 131.104 546.875 131.312V134.836H545.031V122.352H546.531L546.789 123.547H546.875C547.036 123.302 547.232 123.076 547.461 122.867C547.695 122.659 547.977 122.495 548.305 122.375C548.638 122.25 549.026 122.188 549.469 122.188ZM548.977 123.688C548.471 123.688 548.065 123.789 547.758 123.992C547.456 124.19 547.234 124.49 547.094 124.891C546.958 125.292 546.885 125.794 546.875 126.398V126.656C546.875 127.297 546.94 127.841 547.07 128.289C547.206 128.732 547.427 129.07 547.734 129.305C548.047 129.534 548.469 129.648 549 129.648C549.448 129.648 549.818 129.526 550.109 129.281C550.406 129.036 550.628 128.688 550.773 128.234C550.919 127.781 550.992 127.247 550.992 126.633C550.992 125.701 550.826 124.977 550.492 124.461C550.164 123.945 549.659 123.688 548.977 123.688ZM559.438 122.188C560.464 122.188 561.286 122.562 561.906 123.312C562.531 124.062 562.844 125.177 562.844 126.656C562.844 127.635 562.698 128.461 562.406 129.133C562.12 129.799 561.716 130.305 561.195 130.648C560.68 130.987 560.078 131.156 559.391 131.156C558.953 131.156 558.573 131.099 558.25 130.984C557.927 130.87 557.651 130.721 557.422 130.539C557.193 130.352 557 130.148 556.844 129.93H556.734C556.76 130.138 556.784 130.37 556.805 130.625C556.831 130.875 556.844 131.104 556.844 131.312V134.836H555V122.352H556.5L556.758 123.547H556.844C557.005 123.302 557.201 123.076 557.43 122.867C557.664 122.659 557.945 122.495 558.273 122.375C558.607 122.25 558.995 122.188 559.438 122.188ZM558.945 123.688C558.44 123.688 558.034 123.789 557.727 123.992C557.424 124.19 557.203 124.49 557.062 124.891C556.927 125.292 556.854 125.794 556.844 126.398V126.656C556.844 127.297 556.909 127.841 557.039 128.289C557.174 128.732 557.396 129.07 557.703 129.305C558.016 129.534 558.438 129.648 558.969 129.648C559.417 129.648 559.786 129.526 560.078 129.281C560.375 129.036 560.596 128.688 560.742 128.234C560.888 127.781 560.961 127.247 560.961 126.633C560.961 125.701 560.794 124.977 560.461 124.461C560.133 123.945 559.628 123.688 558.945 123.688ZM572.625 126.656C572.625 127.375 572.531 128.013 572.344 128.57C572.156 129.128 571.883 129.599 571.523 129.984C571.164 130.365 570.732 130.656 570.227 130.859C569.721 131.057 569.151 131.156 568.516 131.156C567.922 131.156 567.378 131.057 566.883 130.859C566.388 130.656 565.958 130.365 565.594 129.984C565.234 129.599 564.956 129.128 564.758 128.57C564.56 128.013 564.461 127.375 564.461 126.656C564.461 125.703 564.625 124.896 564.953 124.234C565.286 123.568 565.76 123.06 566.375 122.711C566.99 122.362 567.721 122.188 568.57 122.188C569.367 122.188 570.07 122.362 570.68 122.711C571.289 123.06 571.766 123.568 572.109 124.234C572.453 124.901 572.625 125.708 572.625 126.656ZM566.352 126.656C566.352 127.286 566.427 127.826 566.578 128.273C566.734 128.721 566.974 129.065 567.297 129.305C567.62 129.539 568.036 129.656 568.547 129.656C569.057 129.656 569.474 129.539 569.797 129.305C570.12 129.065 570.357 128.721 570.508 128.273C570.659 127.826 570.734 127.286 570.734 126.656C570.734 126.026 570.659 125.492 570.508 125.055C570.357 124.612 570.12 124.276 569.797 124.047C569.474 123.812 569.055 123.695 568.539 123.695C567.779 123.695 567.224 123.951 566.875 124.461C566.526 124.971 566.352 125.703 566.352 126.656ZM579.117 122.188C579.263 122.188 579.422 122.195 579.594 122.211C579.766 122.227 579.914 122.247 580.039 122.273L579.867 123.992C579.758 123.961 579.622 123.938 579.461 123.922C579.305 123.906 579.164 123.898 579.039 123.898C578.711 123.898 578.398 123.953 578.102 124.062C577.805 124.167 577.542 124.328 577.312 124.547C577.083 124.76 576.904 125.029 576.773 125.352C576.643 125.674 576.578 126.049 576.578 126.477V131H574.734V122.352H576.172L576.422 123.875H576.508C576.68 123.568 576.893 123.286 577.148 123.031C577.404 122.776 577.695 122.573 578.023 122.422C578.357 122.266 578.721 122.188 579.117 122.188ZM584.859 129.672C585.099 129.672 585.336 129.651 585.57 129.609C585.805 129.562 586.018 129.508 586.211 129.445V130.836C586.008 130.924 585.745 131 585.422 131.062C585.099 131.125 584.763 131.156 584.414 131.156C583.924 131.156 583.484 131.076 583.094 130.914C582.703 130.747 582.393 130.464 582.164 130.062C581.935 129.661 581.82 129.107 581.82 128.398V123.75H580.641V122.93L581.906 122.281L582.508 120.43H583.664V122.352H586.141V123.75H583.664V128.375C583.664 128.812 583.773 129.138 583.992 129.352C584.211 129.565 584.5 129.672 584.859 129.672Z" fill="black"/>
<path d="M625.094 127.891C625.094 128.568 624.927 129.151 624.594 129.641C624.266 130.13 623.792 130.505 623.172 130.766C622.557 131.026 621.823 131.156 620.969 131.156C620.552 131.156 620.154 131.133 619.773 131.086C619.393 131.039 619.034 130.971 618.695 130.883C618.362 130.789 618.057 130.677 617.781 130.547V128.781C618.245 128.984 618.763 129.169 619.336 129.336C619.909 129.497 620.492 129.578 621.086 129.578C621.57 129.578 621.971 129.516 622.289 129.391C622.612 129.26 622.852 129.078 623.008 128.844C623.164 128.604 623.242 128.326 623.242 128.008C623.242 127.669 623.151 127.383 622.969 127.148C622.786 126.914 622.51 126.701 622.141 126.508C621.776 126.31 621.318 126.099 620.766 125.875C620.391 125.724 620.031 125.552 619.688 125.359C619.349 125.167 619.047 124.94 618.781 124.68C618.516 124.419 618.305 124.112 618.148 123.758C617.997 123.398 617.922 122.977 617.922 122.492C617.922 121.846 618.076 121.294 618.383 120.836C618.695 120.378 619.133 120.026 619.695 119.781C620.263 119.536 620.924 119.414 621.68 119.414C622.279 119.414 622.841 119.477 623.367 119.602C623.898 119.727 624.419 119.904 624.93 120.133L624.336 121.641C623.867 121.448 623.411 121.294 622.969 121.18C622.531 121.065 622.083 121.008 621.625 121.008C621.229 121.008 620.893 121.068 620.617 121.188C620.341 121.307 620.13 121.477 619.984 121.695C619.844 121.909 619.773 122.164 619.773 122.461C619.773 122.794 619.854 123.076 620.016 123.305C620.182 123.529 620.438 123.734 620.781 123.922C621.13 124.109 621.578 124.318 622.125 124.547C622.755 124.807 623.289 125.081 623.727 125.367C624.169 125.654 624.508 125.997 624.742 126.398C624.977 126.794 625.094 127.292 625.094 127.891ZM631.547 122.188C632.573 122.188 633.396 122.562 634.016 123.312C634.641 124.062 634.953 125.177 634.953 126.656C634.953 127.635 634.807 128.461 634.516 129.133C634.229 129.799 633.826 130.305 633.305 130.648C632.789 130.987 632.188 131.156 631.5 131.156C631.062 131.156 630.682 131.099 630.359 130.984C630.036 130.87 629.76 130.721 629.531 130.539C629.302 130.352 629.109 130.148 628.953 129.93H628.844C628.87 130.138 628.893 130.37 628.914 130.625C628.94 130.875 628.953 131.104 628.953 131.312V134.836H627.109V122.352H628.609L628.867 123.547H628.953C629.115 123.302 629.31 123.076 629.539 122.867C629.773 122.659 630.055 122.495 630.383 122.375C630.716 122.25 631.104 122.188 631.547 122.188ZM631.055 123.688C630.549 123.688 630.143 123.789 629.836 123.992C629.534 124.19 629.312 124.49 629.172 124.891C629.036 125.292 628.964 125.794 628.953 126.398V126.656C628.953 127.297 629.018 127.841 629.148 128.289C629.284 128.732 629.505 129.07 629.812 129.305C630.125 129.534 630.547 129.648 631.078 129.648C631.526 129.648 631.896 129.526 632.188 129.281C632.484 129.036 632.706 128.688 632.852 128.234C632.997 127.781 633.07 127.247 633.07 126.633C633.07 125.701 632.904 124.977 632.57 124.461C632.242 123.945 631.737 123.688 631.055 123.688ZM640.523 122.188C641.294 122.188 641.956 122.346 642.508 122.664C643.06 122.982 643.484 123.432 643.781 124.016C644.078 124.599 644.227 125.297 644.227 126.109V127.094H638.453C638.474 127.932 638.698 128.578 639.125 129.031C639.557 129.484 640.161 129.711 640.938 129.711C641.49 129.711 641.984 129.659 642.422 129.555C642.865 129.445 643.32 129.286 643.789 129.078V130.57C643.357 130.773 642.917 130.922 642.469 131.016C642.021 131.109 641.484 131.156 640.859 131.156C640.01 131.156 639.263 130.992 638.617 130.664C637.977 130.331 637.474 129.836 637.109 129.18C636.75 128.523 636.57 127.708 636.57 126.734C636.57 125.766 636.734 124.943 637.062 124.266C637.391 123.589 637.852 123.073 638.445 122.719C639.039 122.365 639.732 122.188 640.523 122.188ZM640.523 123.57C639.945 123.57 639.477 123.758 639.117 124.133C638.763 124.508 638.555 125.057 638.492 125.781H642.43C642.424 125.349 642.352 124.966 642.211 124.633C642.076 124.299 641.867 124.039 641.586 123.852C641.31 123.664 640.956 123.57 640.523 123.57ZM649.781 131.156C648.964 131.156 648.255 130.997 647.656 130.68C647.057 130.362 646.596 129.875 646.273 129.219C645.951 128.562 645.789 127.729 645.789 126.719C645.789 125.667 645.966 124.807 646.32 124.141C646.674 123.474 647.164 122.982 647.789 122.664C648.419 122.346 649.141 122.188 649.953 122.188C650.469 122.188 650.935 122.24 651.352 122.344C651.773 122.443 652.13 122.565 652.422 122.711L651.875 124.18C651.557 124.049 651.232 123.94 650.898 123.852C650.565 123.763 650.245 123.719 649.938 123.719C649.432 123.719 649.01 123.831 648.672 124.055C648.339 124.279 648.089 124.612 647.922 125.055C647.76 125.497 647.68 126.047 647.68 126.703C647.68 127.339 647.763 127.875 647.93 128.312C648.096 128.745 648.344 129.073 648.672 129.297C649 129.516 649.404 129.625 649.883 129.625C650.357 129.625 650.781 129.568 651.156 129.453C651.531 129.339 651.885 129.19 652.219 129.008V130.602C651.891 130.789 651.539 130.927 651.164 131.016C650.789 131.109 650.328 131.156 649.781 131.156ZM656.086 122.352V131H654.25V122.352H656.086ZM655.18 119.039C655.461 119.039 655.703 119.115 655.906 119.266C656.115 119.417 656.219 119.677 656.219 120.047C656.219 120.411 656.115 120.672 655.906 120.828C655.703 120.979 655.461 121.055 655.18 121.055C654.888 121.055 654.641 120.979 654.438 120.828C654.24 120.672 654.141 120.411 654.141 120.047C654.141 119.677 654.24 119.417 654.438 119.266C654.641 119.115 654.888 119.039 655.18 119.039ZM662.109 122.188C663.203 122.188 664.029 122.43 664.586 122.914C665.148 123.398 665.43 124.154 665.43 125.18V131H664.125L663.773 129.773H663.711C663.466 130.086 663.214 130.344 662.953 130.547C662.693 130.75 662.391 130.901 662.047 131C661.708 131.104 661.294 131.156 660.805 131.156C660.289 131.156 659.828 131.062 659.422 130.875C659.016 130.682 658.695 130.391 658.461 130C658.227 129.609 658.109 129.115 658.109 128.516C658.109 127.625 658.44 126.956 659.102 126.508C659.768 126.06 660.773 125.812 662.117 125.766L663.617 125.711V125.258C663.617 124.659 663.477 124.232 663.195 123.977C662.919 123.721 662.529 123.594 662.023 123.594C661.591 123.594 661.172 123.656 660.766 123.781C660.359 123.906 659.964 124.06 659.578 124.242L658.984 122.945C659.406 122.721 659.885 122.539 660.422 122.398C660.964 122.258 661.526 122.188 662.109 122.188ZM663.609 126.867L662.492 126.906C661.576 126.938 660.932 127.094 660.562 127.375C660.193 127.656 660.008 128.042 660.008 128.531C660.008 128.958 660.135 129.271 660.391 129.469C660.646 129.661 660.982 129.758 661.398 129.758C662.034 129.758 662.56 129.578 662.977 129.219C663.398 128.854 663.609 128.32 663.609 127.617V126.867ZM669.844 131H668V118.844H669.844V131ZM684.281 126.656C684.281 127.375 684.188 128.013 684 128.57C683.812 129.128 683.539 129.599 683.18 129.984C682.82 130.365 682.388 130.656 681.883 130.859C681.378 131.057 680.807 131.156 680.172 131.156C679.578 131.156 679.034 131.057 678.539 130.859C678.044 130.656 677.615 130.365 677.25 129.984C676.891 129.599 676.612 129.128 676.414 128.57C676.216 128.013 676.117 127.375 676.117 126.656C676.117 125.703 676.281 124.896 676.609 124.234C676.943 123.568 677.417 123.06 678.031 122.711C678.646 122.362 679.378 122.188 680.227 122.188C681.023 122.188 681.727 122.362 682.336 122.711C682.945 123.06 683.422 123.568 683.766 124.234C684.109 124.901 684.281 125.708 684.281 126.656ZM678.008 126.656C678.008 127.286 678.083 127.826 678.234 128.273C678.391 128.721 678.63 129.065 678.953 129.305C679.276 129.539 679.693 129.656 680.203 129.656C680.714 129.656 681.13 129.539 681.453 129.305C681.776 129.065 682.013 128.721 682.164 128.273C682.315 127.826 682.391 127.286 682.391 126.656C682.391 126.026 682.315 125.492 682.164 125.055C682.013 124.612 681.776 124.276 681.453 124.047C681.13 123.812 680.711 123.695 680.195 123.695C679.435 123.695 678.88 123.951 678.531 124.461C678.182 124.971 678.008 125.703 678.008 126.656ZM690.711 123.75H688.609V131H686.773V123.75H685.359V122.867L686.773 122.328V121.727C686.773 120.992 686.888 120.409 687.117 119.977C687.352 119.544 687.685 119.234 688.117 119.047C688.555 118.854 689.076 118.758 689.68 118.758C690.076 118.758 690.438 118.792 690.766 118.859C691.094 118.922 691.37 118.995 691.594 119.078L691.117 120.469C690.94 120.411 690.742 120.359 690.523 120.312C690.305 120.26 690.07 120.234 689.82 120.234C689.404 120.234 689.096 120.365 688.898 120.625C688.706 120.885 688.609 121.266 688.609 121.766V122.352H690.711V123.75ZM696.5 123.75H694.398V131H692.562V123.75H691.148V122.867L692.562 122.328V121.727C692.562 120.992 692.677 120.409 692.906 119.977C693.141 119.544 693.474 119.234 693.906 119.047C694.344 118.854 694.865 118.758 695.469 118.758C695.865 118.758 696.227 118.792 696.555 118.859C696.883 118.922 697.159 118.995 697.383 119.078L696.906 120.469C696.729 120.411 696.531 120.359 696.312 120.312C696.094 120.26 695.859 120.234 695.609 120.234C695.193 120.234 694.885 120.365 694.688 120.625C694.495 120.885 694.398 121.266 694.398 121.766V122.352H696.5V123.75ZM701.414 122.188C702.185 122.188 702.846 122.346 703.398 122.664C703.951 122.982 704.375 123.432 704.672 124.016C704.969 124.599 705.117 125.297 705.117 126.109V127.094H699.344C699.365 127.932 699.589 128.578 700.016 129.031C700.448 129.484 701.052 129.711 701.828 129.711C702.38 129.711 702.875 129.659 703.312 129.555C703.755 129.445 704.211 129.286 704.68 129.078V130.57C704.247 130.773 703.807 130.922 703.359 131.016C702.911 131.109 702.375 131.156 701.75 131.156C700.901 131.156 700.154 130.992 699.508 130.664C698.867 130.331 698.365 129.836 698 129.18C697.641 128.523 697.461 127.708 697.461 126.734C697.461 125.766 697.625 124.943 697.953 124.266C698.281 123.589 698.742 123.073 699.336 122.719C699.93 122.365 700.622 122.188 701.414 122.188ZM701.414 123.57C700.836 123.57 700.367 123.758 700.008 124.133C699.654 124.508 699.445 125.057 699.383 125.781H703.32C703.315 125.349 703.242 124.966 703.102 124.633C702.966 124.299 702.758 124.039 702.477 123.852C702.201 123.664 701.846 123.57 701.414 123.57ZM711.57 122.188C711.716 122.188 711.875 122.195 712.047 122.211C712.219 122.227 712.367 122.247 712.492 122.273L712.32 123.992C712.211 123.961 712.076 123.938 711.914 123.922C711.758 123.906 711.617 123.898 711.492 123.898C711.164 123.898 710.852 123.953 710.555 124.062C710.258 124.167 709.995 124.328 709.766 124.547C709.536 124.76 709.357 125.029 709.227 125.352C709.096 125.674 709.031 126.049 709.031 126.477V131H707.188V122.352H708.625L708.875 123.875H708.961C709.133 123.568 709.346 123.286 709.602 123.031C709.857 122.776 710.148 122.573 710.477 122.422C710.81 122.266 711.174 122.188 711.57 122.188ZM719.906 128.531C719.906 129.099 719.768 129.578 719.492 129.969C719.216 130.359 718.812 130.656 718.281 130.859C717.755 131.057 717.109 131.156 716.344 131.156C715.74 131.156 715.219 131.112 714.781 131.023C714.349 130.94 713.94 130.81 713.555 130.633V129.047C713.966 129.24 714.427 129.406 714.938 129.547C715.453 129.688 715.94 129.758 716.398 129.758C717.003 129.758 717.438 129.664 717.703 129.477C717.969 129.284 718.102 129.029 718.102 128.711C718.102 128.523 718.047 128.357 717.938 128.211C717.833 128.06 717.635 127.906 717.344 127.75C717.057 127.589 716.635 127.396 716.078 127.172C715.531 126.953 715.07 126.734 714.695 126.516C714.32 126.297 714.036 126.034 713.844 125.727C713.651 125.414 713.555 125.016 713.555 124.531C713.555 123.766 713.857 123.185 714.461 122.789C715.07 122.388 715.875 122.188 716.875 122.188C717.406 122.188 717.906 122.242 718.375 122.352C718.849 122.456 719.312 122.609 719.766 122.812L719.188 124.195C718.797 124.023 718.404 123.883 718.008 123.773C717.617 123.659 717.219 123.602 716.812 123.602C716.339 123.602 715.977 123.674 715.727 123.82C715.482 123.966 715.359 124.174 715.359 124.445C715.359 124.648 715.419 124.82 715.539 124.961C715.659 125.102 715.865 125.242 716.156 125.383C716.453 125.523 716.865 125.698 717.391 125.906C717.906 126.104 718.352 126.312 718.727 126.531C719.107 126.745 719.398 127.008 719.602 127.32C719.805 127.633 719.906 128.036 719.906 128.531Z" fill="black"/>
<rect width="12" height="12" transform="matrix(0 -1 1 0 253 127)" fill="white"/>
<path d="M264 119L259 124L254 119L254.888 118.113L259 122.225L263.113 118.113L264 119Z" fill="black"/>
<path d="M226.359 131H224.5V119.578H230.953V121.156H226.359V124.719H230.656V126.289H226.359V131ZM234.688 131H232.844V118.844H234.688V131ZM236.008 122.352H238.008L239.781 127.289C239.859 127.513 239.93 127.734 239.992 127.953C240.06 128.167 240.117 128.378 240.164 128.586C240.216 128.794 240.258 129.003 240.289 129.211H240.336C240.388 128.94 240.461 128.638 240.555 128.305C240.654 127.966 240.763 127.628 240.883 127.289L242.586 122.352H244.562L240.852 132.188C240.638 132.75 240.375 133.229 240.062 133.625C239.755 134.026 239.391 134.328 238.969 134.531C238.547 134.74 238.065 134.844 237.523 134.844C237.263 134.844 237.036 134.828 236.844 134.797C236.651 134.771 236.487 134.742 236.352 134.711V133.242C236.461 133.268 236.599 133.292 236.766 133.312C236.932 133.333 237.104 133.344 237.281 133.344C237.609 133.344 237.893 133.279 238.133 133.148C238.372 133.018 238.576 132.833 238.742 132.594C238.909 132.359 239.047 132.091 239.156 131.789L239.461 130.977L236.008 122.352Z" fill="black"/>
<rect x="0.5" y="0.5" width="1479" height="167" rx="4.5" stroke="#9747FF" stroke-dasharray="10 5"/>
<defs>
<filter id="filter0_d_59_1348" x="5" y="9" width="1470" height="84" filterUnits="userSpaceOnUse" color-interpolation-filters="sRGB">
<feFlood flood-opacity="0" result="BackgroundImageFix"/>
<feColorMatrix in="SourceAlpha" type="matrix" values="0 0 0 0 0 0 0 0 0 0 0 0 0 0 0 0 0 0 127 0" result="hardAlpha"/>
<feOffset dy="4"/>
<feGaussianBlur stdDeviation="7.5"/>
<feComposite in2="hardAlpha" operator="out"/>
<feColorMatrix type="matrix" values="0 0 0 0 0 0 0 0 0 0 0 0 0 0 0 0 0 0 0.15 0"/>
<feBlend mode="normal" in2="BackgroundImageFix" result="effect1_dropShadow_59_1348"/>
<feBlend mode="normal" in="SourceGraphic" in2="effect1_dropShadow_59_1348" result="shape"/>
</filter>
<filter id="filter1_d_59_1348" x="5" y="83" width="1470" height="84" filterUnits="userSpaceOnUse" color-interpolation-filters="sRGB">
<feFlood flood-opacity="0" result="BackgroundImageFix"/>
<feColorMatrix in="SourceAlpha" type="matrix" values="0 0 0 0 0 0 0 0 0 0 0 0 0 0 0 0 0 0 127 0" result="hardAlpha"/>
<feOffset dy="4"/>
<feGaussianBlur stdDeviation="7.5"/>
<feComposite in2="hardAlpha" operator="out"/>
<feColorMatrix type="matrix" values="0 0 0 0 0 0 0 0 0 0 0 0 0 0 0 0 0 0 0.15 0"/>
<feBlend mode="normal" in2="BackgroundImageFix" result="effect1_dropShadow_59_1348"/>
<feBlend mode="normal" in="SourceGraphic" in2="effect1_dropShadow_59_1348" result="shape"/>
</filter>
</defs>
</svg>
