<svg width="1470" height="101" viewBox="0 0 1470 101" fill="none" xmlns="http://www.w3.org/2000/svg">
<g filter="url(#filter0_d_59_329)">
<rect x="15" y="11" width="1440" height="71" fill="white"/>
</g>
<rect width="15.7778" height="12" transform="matrix(0 -1 1 0 93 54.3889)" fill="white"/>
<path d="M62.4297 53L59.1406 43.4609H59.0703C59.0859 43.6745 59.1042 43.9661 59.125 44.3359C59.1458 44.7057 59.1641 45.1016 59.1797 45.5234C59.1953 45.9453 59.2031 46.349 59.2031 46.7344V53H57.5V41.5781H60.1328L63.2969 50.6953H63.3438L66.6172 41.5781H69.2422V53H67.4531V46.6406C67.4531 46.2917 67.4583 45.9141 67.4688 45.5078C67.4844 45.1016 67.5 44.7161 67.5156 44.3516C67.5365 43.987 67.5521 43.6953 67.5625 43.4766H67.5L64.0859 53H62.4297ZM70.7578 44.3516H72.7578L74.5312 49.2891C74.6094 49.513 74.6797 49.7344 74.7422 49.9531C74.8099 50.1667 74.8672 50.3776 74.9141 50.5859C74.9661 50.7943 75.0078 51.0026 75.0391 51.2109H75.0859C75.138 50.9401 75.2109 50.638 75.3047 50.3047C75.4036 49.9661 75.513 49.6276 75.6328 49.2891L77.3359 44.3516H79.3125L75.6016 54.1875C75.388 54.75 75.125 55.2292 74.8125 55.625C74.5052 56.026 74.1406 56.3281 73.7188 56.5312C73.2969 56.7396 72.8151 56.8438 72.2734 56.8438C72.013 56.8438 71.7865 56.8281 71.5938 56.7969C71.401 56.7708 71.237 56.7422 71.1016 56.7109V55.2422C71.2109 55.2682 71.349 55.2917 71.5156 55.3125C71.6823 55.3333 71.8542 55.3438 72.0312 55.3438C72.3594 55.3438 72.6432 55.2786 72.8828 55.1484C73.1224 55.0182 73.3255 54.8333 73.4922 54.5938C73.6589 54.3594 73.7969 54.0911 73.9062 53.7891L74.2109 52.9766L70.7578 44.3516ZM92.4375 48.6562C92.4375 49.375 92.3438 50.013 92.1562 50.5703C91.9688 51.1276 91.6953 51.599 91.3359 51.9844C90.9766 52.3646 90.5443 52.6562 90.0391 52.8594C89.5339 53.0573 88.9635 53.1562 88.3281 53.1562C87.7344 53.1562 87.1901 53.0573 86.6953 52.8594C86.2005 52.6562 85.7708 52.3646 85.4062 51.9844C85.0469 51.599 84.7682 51.1276 84.5703 50.5703C84.3724 50.013 84.2734 49.375 84.2734 48.6562C84.2734 47.7031 84.4375 46.8958 84.7656 46.2344C85.099 45.5677 85.5729 45.0599 86.1875 44.7109C86.8021 44.362 87.5339 44.1875 88.3828 44.1875C89.1797 44.1875 89.8828 44.362 90.4922 44.7109C91.1016 45.0599 91.5781 45.5677 91.9219 46.2344C92.2656 46.901 92.4375 47.7083 92.4375 48.6562ZM86.1641 48.6562C86.1641 49.2865 86.2396 49.8255 86.3906 50.2734C86.5469 50.7214 86.7865 51.0651 87.1094 51.3047C87.4323 51.5391 87.849 51.6562 88.3594 51.6562C88.8698 51.6562 89.2865 51.5391 89.6094 51.3047C89.9323 51.0651 90.1693 50.7214 90.3203 50.2734C90.4714 49.8255 90.5469 49.2865 90.5469 48.6562C90.5469 48.026 90.4714 47.4922 90.3203 47.0547C90.1693 46.612 89.9323 46.276 89.6094 46.0469C89.2865 45.8125 88.8672 45.6953 88.3516 45.6953C87.5911 45.6953 87.0365 45.9505 86.6875 46.4609C86.3385 46.9714 86.1641 47.7031 86.1641 48.6562ZM98.8672 45.75H96.7656V53H94.9297V45.75H93.5156V44.8672L94.9297 44.3281V43.7266C94.9297 42.9922 95.0443 42.4089 95.2734 41.9766C95.5078 41.5443 95.8411 41.2344 96.2734 41.0469C96.7109 40.8542 97.2318 40.7578 97.8359 40.7578C98.2318 40.7578 98.5938 40.7917 98.9219 40.8594C99.25 40.9219 99.526 40.9948 99.75 41.0781L99.2734 42.4688C99.0964 42.4115 98.8984 42.3594 98.6797 42.3125C98.4609 42.2604 98.2266 42.2344 97.9766 42.2344C97.5599 42.2344 97.2526 42.3646 97.0547 42.625C96.862 42.8854 96.7656 43.2656 96.7656 43.7656V44.3516H98.8672V45.75ZM104.656 45.75H102.555V53H100.719V45.75H99.3047V44.8672L100.719 44.3281V43.7266C100.719 42.9922 100.833 42.4089 101.062 41.9766C101.297 41.5443 101.63 41.2344 102.062 41.0469C102.5 40.8542 103.021 40.7578 103.625 40.7578C104.021 40.7578 104.383 40.7917 104.711 40.8594C105.039 40.9219 105.315 40.9948 105.539 41.0781L105.062 42.4688C104.885 42.4115 104.688 42.3594 104.469 42.3125C104.25 42.2604 104.016 42.2344 103.766 42.2344C103.349 42.2344 103.042 42.3646 102.844 42.625C102.651 42.8854 102.555 43.2656 102.555 43.7656V44.3516H104.656V45.75ZM109.57 44.1875C110.341 44.1875 111.003 44.3464 111.555 44.6641C112.107 44.9818 112.531 45.4323 112.828 46.0156C113.125 46.599 113.273 47.2969 113.273 48.1094V49.0938H107.5C107.521 49.9323 107.745 50.5781 108.172 51.0312C108.604 51.4844 109.208 51.7109 109.984 51.7109C110.536 51.7109 111.031 51.6589 111.469 51.5547C111.911 51.4453 112.367 51.2865 112.836 51.0781V52.5703C112.404 52.7734 111.964 52.9219 111.516 53.0156C111.068 53.1094 110.531 53.1562 109.906 53.1562C109.057 53.1562 108.31 52.9922 107.664 52.6641C107.023 52.3307 106.521 51.8359 106.156 51.1797C105.797 50.5234 105.617 49.7083 105.617 48.7344C105.617 47.7656 105.781 46.9427 106.109 46.2656C106.438 45.5885 106.898 45.0729 107.492 44.7188C108.086 44.3646 108.779 44.1875 109.57 44.1875ZM109.57 45.5703C108.992 45.5703 108.523 45.7578 108.164 46.1328C107.81 46.5078 107.602 47.0573 107.539 47.7812H111.477C111.471 47.349 111.398 46.9661 111.258 46.6328C111.122 46.2995 110.914 46.0391 110.633 45.8516C110.357 45.6641 110.003 45.5703 109.57 45.5703ZM119.727 44.1875C119.872 44.1875 120.031 44.1953 120.203 44.2109C120.375 44.2266 120.523 44.2474 120.648 44.2734L120.477 45.9922C120.367 45.9609 120.232 45.9375 120.07 45.9219C119.914 45.9062 119.773 45.8984 119.648 45.8984C119.32 45.8984 119.008 45.9531 118.711 46.0625C118.414 46.1667 118.151 46.3281 117.922 46.5469C117.693 46.7604 117.513 47.0286 117.383 47.3516C117.253 47.6745 117.188 48.0495 117.188 48.4766V53H115.344V44.3516H116.781L117.031 45.875H117.117C117.289 45.5677 117.503 45.2865 117.758 45.0312C118.013 44.776 118.305 44.5729 118.633 44.4219C118.966 44.2656 119.331 44.1875 119.727 44.1875ZM128.062 50.5312C128.062 51.099 127.924 51.5781 127.648 51.9688C127.372 52.3594 126.969 52.6562 126.438 52.8594C125.911 53.0573 125.266 53.1562 124.5 53.1562C123.896 53.1562 123.375 53.112 122.938 53.0234C122.505 52.9401 122.096 52.8099 121.711 52.6328V51.0469C122.122 51.2396 122.583 51.4062 123.094 51.5469C123.609 51.6875 124.096 51.7578 124.555 51.7578C125.159 51.7578 125.594 51.6641 125.859 51.4766C126.125 51.2839 126.258 51.0286 126.258 50.7109C126.258 50.5234 126.203 50.3568 126.094 50.2109C125.99 50.0599 125.792 49.9062 125.5 49.75C125.214 49.5885 124.792 49.3958 124.234 49.1719C123.688 48.9531 123.227 48.7344 122.852 48.5156C122.477 48.2969 122.193 48.0339 122 47.7266C121.807 47.4141 121.711 47.0156 121.711 46.5312C121.711 45.7656 122.013 45.1849 122.617 44.7891C123.227 44.388 124.031 44.1875 125.031 44.1875C125.562 44.1875 126.062 44.2422 126.531 44.3516C127.005 44.4557 127.469 44.6094 127.922 44.8125L127.344 46.1953C126.953 46.0234 126.56 45.8828 126.164 45.7734C125.773 45.6589 125.375 45.6016 124.969 45.6016C124.495 45.6016 124.133 45.6745 123.883 45.8203C123.638 45.9661 123.516 46.1745 123.516 46.4453C123.516 46.6484 123.576 46.8203 123.695 46.9609C123.815 47.1016 124.021 47.2422 124.312 47.3828C124.609 47.5234 125.021 47.6979 125.547 47.9062C126.062 48.1042 126.508 48.3125 126.883 48.5312C127.263 48.7448 127.555 49.0078 127.758 49.3203C127.961 49.6328 128.062 50.0365 128.062 50.5312Z" fill="#215076"/>
<rect width="15.7778" height="12" transform="matrix(0 -1 1 0 176 54.3889)" fill="white"/>
<path d="M308.359 53H306.5V41.5781H312.953V43.1562H308.359V46.7188H312.656V48.2891H308.359V53ZM318.234 44.1875C319.328 44.1875 320.154 44.4297 320.711 44.9141C321.273 45.3984 321.555 46.1536 321.555 47.1797V53H320.25L319.898 51.7734H319.836C319.591 52.0859 319.339 52.3438 319.078 52.5469C318.818 52.75 318.516 52.901 318.172 53C317.833 53.1042 317.419 53.1562 316.93 53.1562C316.414 53.1562 315.953 53.0625 315.547 52.875C315.141 52.6823 314.82 52.3906 314.586 52C314.352 51.6094 314.234 51.1146 314.234 50.5156C314.234 49.625 314.565 48.9557 315.227 48.5078C315.893 48.0599 316.898 47.8125 318.242 47.7656L319.742 47.7109V47.2578C319.742 46.6589 319.602 46.2318 319.32 45.9766C319.044 45.7214 318.654 45.5938 318.148 45.5938C317.716 45.5938 317.297 45.6562 316.891 45.7812C316.484 45.9062 316.089 46.0599 315.703 46.2422L315.109 44.9453C315.531 44.7214 316.01 44.5391 316.547 44.3984C317.089 44.2578 317.651 44.1875 318.234 44.1875ZM319.734 48.8672L318.617 48.9062C317.701 48.9375 317.057 49.0938 316.688 49.375C316.318 49.6562 316.133 50.0417 316.133 50.5312C316.133 50.9583 316.26 51.2708 316.516 51.4688C316.771 51.6615 317.107 51.7578 317.523 51.7578C318.159 51.7578 318.685 51.5781 319.102 51.2188C319.523 50.8542 319.734 50.3203 319.734 49.6172V48.8672ZM333.898 44.1875C334.867 44.1875 335.596 44.4375 336.086 44.9375C336.581 45.4375 336.828 46.2396 336.828 47.3438V53H334.992V47.6719C334.992 47.0156 334.865 46.5208 334.609 46.1875C334.354 45.8542 333.966 45.6875 333.445 45.6875C332.716 45.6875 332.19 45.9219 331.867 46.3906C331.549 46.8542 331.391 47.5286 331.391 48.4141V53H329.555V47.6719C329.555 47.2344 329.497 46.8698 329.383 46.5781C329.273 46.2812 329.104 46.0599 328.875 45.9141C328.646 45.763 328.357 45.6875 328.008 45.6875C327.503 45.6875 327.099 45.8021 326.797 46.0312C326.5 46.2604 326.286 46.599 326.156 47.0469C326.026 47.4896 325.961 48.0339 325.961 48.6797V53H324.125V44.3516H325.555L325.812 45.5156H325.914C326.091 45.2135 326.31 44.9661 326.57 44.7734C326.836 44.5755 327.13 44.4297 327.453 44.3359C327.776 44.237 328.112 44.1875 328.461 44.1875C329.107 44.1875 329.651 44.3021 330.094 44.5312C330.536 44.7552 330.867 45.099 331.086 45.5625H331.227C331.497 45.0938 331.875 44.7474 332.359 44.5234C332.844 44.2995 333.357 44.1875 333.898 44.1875ZM341.227 44.3516V53H339.391V44.3516H341.227ZM340.32 41.0391C340.602 41.0391 340.844 41.1146 341.047 41.2656C341.255 41.4167 341.359 41.6771 341.359 42.0469C341.359 42.4115 341.255 42.6719 341.047 42.8281C340.844 42.9792 340.602 43.0547 340.32 43.0547C340.029 43.0547 339.781 42.9792 339.578 42.8281C339.38 42.6719 339.281 42.4115 339.281 42.0469C339.281 41.6771 339.38 41.4167 339.578 41.2656C339.781 41.1146 340.029 41.0391 340.32 41.0391ZM345.703 53H343.859V40.8438H345.703V53ZM347.023 44.3516H349.023L350.797 49.2891C350.875 49.513 350.945 49.7344 351.008 49.9531C351.076 50.1667 351.133 50.3776 351.18 50.5859C351.232 50.7943 351.273 51.0026 351.305 51.2109H351.352C351.404 50.9401 351.477 50.638 351.57 50.3047C351.669 49.9661 351.779 49.6276 351.898 49.2891L353.602 44.3516H355.578L351.867 54.1875C351.654 54.75 351.391 55.2292 351.078 55.625C350.771 56.026 350.406 56.3281 349.984 56.5312C349.562 56.7396 349.081 56.8438 348.539 56.8438C348.279 56.8438 348.052 56.8281 347.859 56.7969C347.667 56.7708 347.503 56.7422 347.367 56.7109V55.2422C347.477 55.2682 347.615 55.2917 347.781 55.3125C347.948 55.3333 348.12 55.3438 348.297 55.3438C348.625 55.3438 348.909 55.2786 349.148 55.1484C349.388 55.0182 349.591 54.8333 349.758 54.5938C349.924 54.3594 350.062 54.0911 350.172 53.7891L350.477 52.9766L347.023 44.3516ZM366.859 50.5312C366.859 51.099 366.721 51.5781 366.445 51.9688C366.169 52.3594 365.766 52.6562 365.234 52.8594C364.708 53.0573 364.062 53.1562 363.297 53.1562C362.693 53.1562 362.172 53.112 361.734 53.0234C361.302 52.9401 360.893 52.8099 360.508 52.6328V51.0469C360.919 51.2396 361.38 51.4062 361.891 51.5469C362.406 51.6875 362.893 51.7578 363.352 51.7578C363.956 51.7578 364.391 51.6641 364.656 51.4766C364.922 51.2839 365.055 51.0286 365.055 50.7109C365.055 50.5234 365 50.3568 364.891 50.2109C364.786 50.0599 364.589 49.9062 364.297 49.75C364.01 49.5885 363.589 49.3958 363.031 49.1719C362.484 48.9531 362.023 48.7344 361.648 48.5156C361.273 48.2969 360.99 48.0339 360.797 47.7266C360.604 47.4141 360.508 47.0156 360.508 46.5312C360.508 45.7656 360.81 45.1849 361.414 44.7891C362.023 44.388 362.828 44.1875 363.828 44.1875C364.359 44.1875 364.859 44.2422 365.328 44.3516C365.802 44.4557 366.266 44.6094 366.719 44.8125L366.141 46.1953C365.75 46.0234 365.357 45.8828 364.961 45.7734C364.57 45.6589 364.172 45.6016 363.766 45.6016C363.292 45.6016 362.93 45.6745 362.68 45.8203C362.435 45.9661 362.312 46.1745 362.312 46.4453C362.312 46.6484 362.372 46.8203 362.492 46.9609C362.612 47.1016 362.818 47.2422 363.109 47.3828C363.406 47.5234 363.818 47.6979 364.344 47.9062C364.859 48.1042 365.305 48.3125 365.68 48.5312C366.06 48.7448 366.352 49.0078 366.555 49.3203C366.758 49.6328 366.859 50.0365 366.859 50.5312ZM370.68 40.8438V43.8984C370.68 44.2161 370.669 44.526 370.648 44.8281C370.633 45.1302 370.615 45.3646 370.594 45.5312H370.695C370.878 45.2292 371.102 44.9818 371.367 44.7891C371.633 44.5911 371.93 44.4427 372.258 44.3438C372.591 44.2448 372.945 44.1953 373.32 44.1953C373.982 44.1953 374.544 44.3073 375.008 44.5312C375.471 44.75 375.826 45.0911 376.07 45.5547C376.32 46.0182 376.445 46.6198 376.445 47.3594V53H374.609V47.7031C374.609 47.0312 374.471 46.5286 374.195 46.1953C373.919 45.8568 373.492 45.6875 372.914 45.6875C372.357 45.6875 371.914 45.8047 371.586 46.0391C371.263 46.2682 371.031 46.6094 370.891 47.0625C370.75 47.5104 370.68 48.0573 370.68 48.7031V53H368.844V40.8438H370.68ZM382.406 44.1875C383.5 44.1875 384.326 44.4297 384.883 44.9141C385.445 45.3984 385.727 46.1536 385.727 47.1797V53H384.422L384.07 51.7734H384.008C383.763 52.0859 383.51 52.3438 383.25 52.5469C382.99 52.75 382.688 52.901 382.344 53C382.005 53.1042 381.591 53.1562 381.102 53.1562C380.586 53.1562 380.125 53.0625 379.719 52.875C379.312 52.6823 378.992 52.3906 378.758 52C378.523 51.6094 378.406 51.1146 378.406 50.5156C378.406 49.625 378.737 48.9557 379.398 48.5078C380.065 48.0599 381.07 47.8125 382.414 47.7656L383.914 47.7109V47.2578C383.914 46.6589 383.773 46.2318 383.492 45.9766C383.216 45.7214 382.826 45.5938 382.32 45.5938C381.888 45.5938 381.469 45.6562 381.062 45.7812C380.656 45.9062 380.26 46.0599 379.875 46.2422L379.281 44.9453C379.703 44.7214 380.182 44.5391 380.719 44.3984C381.26 44.2578 381.823 44.1875 382.406 44.1875ZM383.906 48.8672L382.789 48.9062C381.872 48.9375 381.229 49.0938 380.859 49.375C380.49 49.6562 380.305 50.0417 380.305 50.5312C380.305 50.9583 380.432 51.2708 380.688 51.4688C380.943 51.6615 381.279 51.7578 381.695 51.7578C382.331 51.7578 382.857 51.5781 383.273 51.2188C383.695 50.8542 383.906 50.3203 383.906 49.6172V48.8672ZM392.68 44.1875C392.826 44.1875 392.984 44.1953 393.156 44.2109C393.328 44.2266 393.477 44.2474 393.602 44.2734L393.43 45.9922C393.32 45.9609 393.185 45.9375 393.023 45.9219C392.867 45.9062 392.727 45.8984 392.602 45.8984C392.273 45.8984 391.961 45.9531 391.664 46.0625C391.367 46.1667 391.104 46.3281 390.875 46.5469C390.646 46.7604 390.466 47.0286 390.336 47.3516C390.206 47.6745 390.141 48.0495 390.141 48.4766V53H388.297V44.3516H389.734L389.984 45.875H390.07C390.242 45.5677 390.456 45.2865 390.711 45.0312C390.966 44.776 391.258 44.5729 391.586 44.4219C391.919 44.2656 392.284 44.1875 392.68 44.1875ZM397.039 44.3516V53H395.203V44.3516H397.039ZM396.133 41.0391C396.414 41.0391 396.656 41.1146 396.859 41.2656C397.068 41.4167 397.172 41.6771 397.172 42.0469C397.172 42.4115 397.068 42.6719 396.859 42.8281C396.656 42.9792 396.414 43.0547 396.133 43.0547C395.841 43.0547 395.594 42.9792 395.391 42.8281C395.193 42.6719 395.094 42.4115 395.094 42.0469C395.094 41.6771 395.193 41.4167 395.391 41.2656C395.594 41.1146 395.841 41.0391 396.133 41.0391ZM404.18 44.1875C405.154 44.1875 405.911 44.4401 406.453 44.9453C407 45.4453 407.273 46.25 407.273 47.3594V53H405.438V47.7031C405.438 47.0312 405.299 46.5286 405.023 46.1953C404.747 45.8568 404.32 45.6875 403.742 45.6875C402.904 45.6875 402.32 45.9453 401.992 46.4609C401.669 46.9766 401.508 47.724 401.508 48.7031V53H399.672V44.3516H401.102L401.359 45.5234H401.461C401.648 45.2214 401.88 44.974 402.156 44.7812C402.438 44.5833 402.75 44.4349 403.094 44.3359C403.443 44.237 403.805 44.1875 404.18 44.1875ZM412.312 56.8438C411.141 56.8438 410.242 56.6328 409.617 56.2109C408.992 55.7891 408.68 55.1979 408.68 54.4375C408.68 53.9062 408.846 53.4557 409.18 53.0859C409.513 52.7214 409.99 52.4688 410.609 52.3281C410.375 52.224 410.172 52.0625 410 51.8438C409.833 51.6198 409.75 51.3724 409.75 51.1016C409.75 50.7786 409.841 50.5026 410.023 50.2734C410.206 50.0443 410.479 49.8229 410.844 49.6094C410.391 49.4167 410.026 49.1042 409.75 48.6719C409.479 48.2344 409.344 47.7214 409.344 47.1328C409.344 46.5078 409.477 45.9766 409.742 45.5391C410.008 45.0964 410.396 44.7604 410.906 44.5312C411.417 44.2969 412.034 44.1797 412.758 44.1797C412.914 44.1797 413.083 44.1901 413.266 44.2109C413.453 44.2266 413.625 44.2474 413.781 44.2734C413.943 44.2943 414.065 44.3177 414.148 44.3438H417.141V45.3672L415.672 45.6406C415.812 45.8385 415.924 46.0651 416.008 46.3203C416.091 46.5703 416.133 46.8438 416.133 47.1406C416.133 48.0365 415.823 48.7422 415.203 49.2578C414.589 49.7682 413.74 50.0234 412.656 50.0234C412.396 50.013 412.143 49.9922 411.898 49.9609C411.711 50.0755 411.568 50.2031 411.469 50.3438C411.37 50.4792 411.32 50.6328 411.32 50.8047C411.32 50.9453 411.37 51.0599 411.469 51.1484C411.568 51.2318 411.714 51.2943 411.906 51.3359C412.104 51.3776 412.344 51.3984 412.625 51.3984H414.117C415.065 51.3984 415.789 51.599 416.289 52C416.789 52.401 417.039 52.9896 417.039 53.7656C417.039 54.75 416.633 55.5078 415.82 56.0391C415.008 56.5755 413.839 56.8438 412.312 56.8438ZM412.383 55.5547C413.023 55.5547 413.562 55.4922 414 55.3672C414.438 55.2422 414.768 55.0625 414.992 54.8281C415.216 54.599 415.328 54.3255 415.328 54.0078C415.328 53.7266 415.258 53.5104 415.117 53.3594C414.977 53.2083 414.766 53.1042 414.484 53.0469C414.203 52.9896 413.854 52.9609 413.438 52.9609H412.078C411.74 52.9609 411.44 53.013 411.18 53.1172C410.919 53.2266 410.716 53.3828 410.57 53.5859C410.43 53.7891 410.359 54.0339 410.359 54.3203C410.359 54.7161 410.534 55.0208 410.883 55.2344C411.237 55.4479 411.737 55.5547 412.383 55.5547ZM412.742 48.8203C413.279 48.8203 413.677 48.6745 413.938 48.3828C414.198 48.0859 414.328 47.6693 414.328 47.1328C414.328 46.5495 414.193 46.112 413.922 45.8203C413.656 45.5286 413.26 45.3828 412.734 45.3828C412.219 45.3828 411.826 45.5312 411.555 45.8281C411.289 46.125 411.156 46.5651 411.156 47.1484C411.156 47.6745 411.289 48.0859 411.555 48.3828C411.826 48.6745 412.221 48.8203 412.742 48.8203Z" fill="black"/>
<path d="M484.094 49.8906C484.094 50.5677 483.927 51.151 483.594 51.6406C483.266 52.1302 482.792 52.5052 482.172 52.7656C481.557 53.026 480.823 53.1562 479.969 53.1562C479.552 53.1562 479.154 53.1328 478.773 53.0859C478.393 53.0391 478.034 52.9714 477.695 52.8828C477.362 52.7891 477.057 52.6771 476.781 52.5469V50.7812C477.245 50.9844 477.763 51.1693 478.336 51.3359C478.909 51.4974 479.492 51.5781 480.086 51.5781C480.57 51.5781 480.971 51.5156 481.289 51.3906C481.612 51.2604 481.852 51.0781 482.008 50.8438C482.164 50.6042 482.242 50.3255 482.242 50.0078C482.242 49.6693 482.151 49.3828 481.969 49.1484C481.786 48.9141 481.51 48.7005 481.141 48.5078C480.776 48.3099 480.318 48.099 479.766 47.875C479.391 47.724 479.031 47.5521 478.688 47.3594C478.349 47.1667 478.047 46.9401 477.781 46.6797C477.516 46.4193 477.305 46.112 477.148 45.7578C476.997 45.3984 476.922 44.9766 476.922 44.4922C476.922 43.8464 477.076 43.2943 477.383 42.8359C477.695 42.3776 478.133 42.026 478.695 41.7812C479.263 41.5365 479.924 41.4141 480.68 41.4141C481.279 41.4141 481.841 41.4766 482.367 41.6016C482.898 41.7266 483.419 41.9036 483.93 42.1328L483.336 43.6406C482.867 43.4479 482.411 43.2943 481.969 43.1797C481.531 43.0651 481.083 43.0078 480.625 43.0078C480.229 43.0078 479.893 43.0677 479.617 43.1875C479.341 43.3073 479.13 43.4766 478.984 43.6953C478.844 43.9089 478.773 44.1641 478.773 44.4609C478.773 44.7943 478.854 45.0755 479.016 45.3047C479.182 45.5286 479.438 45.7344 479.781 45.9219C480.13 46.1094 480.578 46.3177 481.125 46.5469C481.755 46.8073 482.289 47.0807 482.727 47.3672C483.169 47.6536 483.508 47.9974 483.742 48.3984C483.977 48.7943 484.094 49.2917 484.094 49.8906ZM489.328 51.6719C489.568 51.6719 489.805 51.651 490.039 51.6094C490.273 51.5625 490.487 51.5078 490.68 51.4453V52.8359C490.477 52.9245 490.214 53 489.891 53.0625C489.568 53.125 489.232 53.1562 488.883 53.1562C488.393 53.1562 487.953 53.0755 487.562 52.9141C487.172 52.7474 486.862 52.4635 486.633 52.0625C486.404 51.6615 486.289 51.1068 486.289 50.3984V45.75H485.109V44.9297L486.375 44.2812L486.977 42.4297H488.133V44.3516H490.609V45.75H488.133V50.375C488.133 50.8125 488.242 51.138 488.461 51.3516C488.68 51.5651 488.969 51.6719 489.328 51.6719ZM495.828 44.1875C496.922 44.1875 497.747 44.4297 498.305 44.9141C498.867 45.3984 499.148 46.1536 499.148 47.1797V53H497.844L497.492 51.7734H497.43C497.185 52.0859 496.932 52.3438 496.672 52.5469C496.411 52.75 496.109 52.901 495.766 53C495.427 53.1042 495.013 53.1562 494.523 53.1562C494.008 53.1562 493.547 53.0625 493.141 52.875C492.734 52.6823 492.414 52.3906 492.18 52C491.945 51.6094 491.828 51.1146 491.828 50.5156C491.828 49.625 492.159 48.9557 492.82 48.5078C493.487 48.0599 494.492 47.8125 495.836 47.7656L497.336 47.7109V47.2578C497.336 46.6589 497.195 46.2318 496.914 45.9766C496.638 45.7214 496.247 45.5938 495.742 45.5938C495.31 45.5938 494.891 45.6562 494.484 45.7812C494.078 45.9062 493.682 46.0599 493.297 46.2422L492.703 44.9453C493.125 44.7214 493.604 44.5391 494.141 44.3984C494.682 44.2578 495.245 44.1875 495.828 44.1875ZM497.328 48.8672L496.211 48.9062C495.294 48.9375 494.651 49.0938 494.281 49.375C493.911 49.6562 493.727 50.0417 493.727 50.5312C493.727 50.9583 493.854 51.2708 494.109 51.4688C494.365 51.6615 494.701 51.7578 495.117 51.7578C495.753 51.7578 496.279 51.5781 496.695 51.2188C497.117 50.8542 497.328 50.3203 497.328 49.6172V48.8672ZM504.938 51.6719C505.177 51.6719 505.414 51.651 505.648 51.6094C505.883 51.5625 506.096 51.5078 506.289 51.4453V52.8359C506.086 52.9245 505.823 53 505.5 53.0625C505.177 53.125 504.841 53.1562 504.492 53.1562C504.003 53.1562 503.562 53.0755 503.172 52.9141C502.781 52.7474 502.471 52.4635 502.242 52.0625C502.013 51.6615 501.898 51.1068 501.898 50.3984V45.75H500.719V44.9297L501.984 44.2812L502.586 42.4297H503.742V44.3516H506.219V45.75H503.742V50.375C503.742 50.8125 503.852 51.138 504.07 51.3516C504.289 51.5651 504.578 51.6719 504.938 51.6719ZM515.586 44.3516V53H514.141L513.891 51.8359H513.789C513.607 52.1328 513.375 52.3802 513.094 52.5781C512.812 52.7708 512.5 52.9141 512.156 53.0078C511.812 53.1068 511.451 53.1562 511.07 53.1562C510.419 53.1562 509.862 53.0469 509.398 52.8281C508.94 52.6042 508.589 52.2604 508.344 51.7969C508.099 51.3333 507.977 50.7344 507.977 50V44.3516H509.82V49.6562C509.82 50.3281 509.956 50.8307 510.227 51.1641C510.503 51.4974 510.93 51.6641 511.508 51.6641C512.065 51.6641 512.508 51.5495 512.836 51.3203C513.164 51.0911 513.396 50.7526 513.531 50.3047C513.672 49.8568 513.742 49.3073 513.742 48.6562V44.3516H515.586ZM524.031 50.5312C524.031 51.099 523.893 51.5781 523.617 51.9688C523.341 52.3594 522.938 52.6562 522.406 52.8594C521.88 53.0573 521.234 53.1562 520.469 53.1562C519.865 53.1562 519.344 53.112 518.906 53.0234C518.474 52.9401 518.065 52.8099 517.68 52.6328V51.0469C518.091 51.2396 518.552 51.4062 519.062 51.5469C519.578 51.6875 520.065 51.7578 520.523 51.7578C521.128 51.7578 521.562 51.6641 521.828 51.4766C522.094 51.2839 522.227 51.0286 522.227 50.7109C522.227 50.5234 522.172 50.3568 522.062 50.2109C521.958 50.0599 521.76 49.9062 521.469 49.75C521.182 49.5885 520.76 49.3958 520.203 49.1719C519.656 48.9531 519.195 48.7344 518.82 48.5156C518.445 48.2969 518.161 48.0339 517.969 47.7266C517.776 47.4141 517.68 47.0156 517.68 46.5312C517.68 45.7656 517.982 45.1849 518.586 44.7891C519.195 44.388 520 44.1875 521 44.1875C521.531 44.1875 522.031 44.2422 522.5 44.3516C522.974 44.4557 523.438 44.6094 523.891 44.8125L523.312 46.1953C522.922 46.0234 522.529 45.8828 522.133 45.7734C521.742 45.6589 521.344 45.6016 520.938 45.6016C520.464 45.6016 520.102 45.6745 519.852 45.8203C519.607 45.9661 519.484 46.1745 519.484 46.4453C519.484 46.6484 519.544 46.8203 519.664 46.9609C519.784 47.1016 519.99 47.2422 520.281 47.3828C520.578 47.5234 520.99 47.6979 521.516 47.9062C522.031 48.1042 522.477 48.3125 522.852 48.5312C523.232 48.7448 523.523 49.0078 523.727 49.3203C523.93 49.6328 524.031 50.0365 524.031 50.5312Z" fill="black"/>
<path d="M588.5 40.5781H591.898C593.372 40.5781 594.484 40.7917 595.234 41.2188C595.984 41.6458 596.359 42.3828 596.359 43.4297C596.359 43.8672 596.281 44.263 596.125 44.6172C595.974 44.9661 595.753 45.2552 595.461 45.4844C595.169 45.7083 594.81 45.8594 594.383 45.9375V46.0156C594.826 46.0938 595.219 46.2318 595.562 46.4297C595.911 46.6276 596.185 46.9115 596.383 47.2812C596.586 47.651 596.688 48.1302 596.688 48.7188C596.688 49.4167 596.521 50.0104 596.188 50.5C595.859 50.9896 595.388 51.362 594.773 51.6172C594.164 51.8724 593.44 52 592.602 52H588.5V40.5781ZM590.375 45.2891H592.172C593.021 45.2891 593.609 45.151 593.938 44.875C594.266 44.599 594.43 44.1953 594.43 43.6641C594.43 43.1224 594.234 42.7318 593.844 42.4922C593.458 42.2526 592.844 42.1328 592 42.1328H590.375V45.2891ZM590.375 46.8047V50.4297H592.352C593.227 50.4297 593.841 50.2604 594.195 49.9219C594.549 49.5833 594.727 49.125 594.727 48.5469C594.727 48.1927 594.646 47.8854 594.484 47.625C594.328 47.3646 594.07 47.1641 593.711 47.0234C593.352 46.8776 592.867 46.8047 592.258 46.8047H590.375ZM602.305 43.1875C603.076 43.1875 603.737 43.3464 604.289 43.6641C604.841 43.9818 605.266 44.4323 605.562 45.0156C605.859 45.599 606.008 46.2969 606.008 47.1094V48.0938H600.234C600.255 48.9323 600.479 49.5781 600.906 50.0312C601.339 50.4844 601.943 50.7109 602.719 50.7109C603.271 50.7109 603.766 50.6589 604.203 50.5547C604.646 50.4453 605.102 50.2865 605.57 50.0781V51.5703C605.138 51.7734 604.698 51.9219 604.25 52.0156C603.802 52.1094 603.266 52.1562 602.641 52.1562C601.792 52.1562 601.044 51.9922 600.398 51.6641C599.758 51.3307 599.255 50.8359 598.891 50.1797C598.531 49.5234 598.352 48.7083 598.352 47.7344C598.352 46.7656 598.516 45.9427 598.844 45.2656C599.172 44.5885 599.633 44.0729 600.227 43.7188C600.82 43.3646 601.513 43.1875 602.305 43.1875ZM602.305 44.5703C601.727 44.5703 601.258 44.7578 600.898 45.1328C600.544 45.5078 600.336 46.0573 600.273 46.7812H604.211C604.206 46.349 604.133 45.9661 603.992 45.6328C603.857 45.2995 603.648 45.0391 603.367 44.8516C603.091 44.6641 602.737 44.5703 602.305 44.5703ZM612.586 43.1875C613.56 43.1875 614.318 43.4401 614.859 43.9453C615.406 44.4453 615.68 45.25 615.68 46.3594V52H613.844V46.7031C613.844 46.0312 613.706 45.5286 613.43 45.1953C613.154 44.8568 612.727 44.6875 612.148 44.6875C611.31 44.6875 610.727 44.9453 610.398 45.4609C610.076 45.9766 609.914 46.724 609.914 47.7031V52H608.078V43.3516H609.508L609.766 44.5234H609.867C610.055 44.2214 610.286 43.974 610.562 43.7812C610.844 43.5833 611.156 43.4349 611.5 43.3359C611.849 43.237 612.211 43.1875 612.586 43.1875ZM621.695 43.1875C622.466 43.1875 623.128 43.3464 623.68 43.6641C624.232 43.9818 624.656 44.4323 624.953 45.0156C625.25 45.599 625.398 46.2969 625.398 47.1094V48.0938H619.625C619.646 48.9323 619.87 49.5781 620.297 50.0312C620.729 50.4844 621.333 50.7109 622.109 50.7109C622.661 50.7109 623.156 50.6589 623.594 50.5547C624.036 50.4453 624.492 50.2865 624.961 50.0781V51.5703C624.529 51.7734 624.089 51.9219 623.641 52.0156C623.193 52.1094 622.656 52.1562 622.031 52.1562C621.182 52.1562 620.435 51.9922 619.789 51.6641C619.148 51.3307 618.646 50.8359 618.281 50.1797C617.922 49.5234 617.742 48.7083 617.742 47.7344C617.742 46.7656 617.906 45.9427 618.234 45.2656C618.562 44.5885 619.023 44.0729 619.617 43.7188C620.211 43.3646 620.904 43.1875 621.695 43.1875ZM621.695 44.5703C621.117 44.5703 620.648 44.7578 620.289 45.1328C619.935 45.5078 619.727 46.0573 619.664 46.7812H623.602C623.596 46.349 623.523 45.9661 623.383 45.6328C623.247 45.2995 623.039 45.0391 622.758 44.8516C622.482 44.6641 622.128 44.5703 621.695 44.5703ZM631.789 44.75H629.688V52H627.852V44.75H626.438V43.8672L627.852 43.3281V42.7266C627.852 41.9922 627.966 41.4089 628.195 40.9766C628.43 40.5443 628.763 40.2344 629.195 40.0469C629.633 39.8542 630.154 39.7578 630.758 39.7578C631.154 39.7578 631.516 39.7917 631.844 39.8594C632.172 39.9219 632.448 39.9948 632.672 40.0781L632.195 41.4688C632.018 41.4115 631.82 41.3594 631.602 41.3125C631.383 41.2604 631.148 41.2344 630.898 41.2344C630.482 41.2344 630.174 41.3646 629.977 41.625C629.784 41.8854 629.688 42.2656 629.688 42.7656V43.3516H631.789V44.75ZM635.094 43.3516V52H633.258V43.3516H635.094ZM634.188 40.0391C634.469 40.0391 634.711 40.1146 634.914 40.2656C635.122 40.4167 635.227 40.6771 635.227 41.0469C635.227 41.4115 635.122 41.6719 634.914 41.8281C634.711 41.9792 634.469 42.0547 634.188 42.0547C633.896 42.0547 633.648 41.9792 633.445 41.8281C633.247 41.6719 633.148 41.4115 633.148 41.0469C633.148 40.6771 633.247 40.4167 633.445 40.2656C633.648 40.1146 633.896 40.0391 634.188 40.0391ZM640.938 50.6719C641.177 50.6719 641.414 50.651 641.648 50.6094C641.883 50.5625 642.096 50.5078 642.289 50.4453V51.8359C642.086 51.9245 641.823 52 641.5 52.0625C641.177 52.125 640.841 52.1562 640.492 52.1562C640.003 52.1562 639.562 52.0755 639.172 51.9141C638.781 51.7474 638.471 51.4635 638.242 51.0625C638.013 50.6615 637.898 50.1068 637.898 49.3984V44.75H636.719V43.9297L637.984 43.2812L638.586 41.4297H639.742V43.3516H642.219V44.75H639.742V49.375C639.742 49.8125 639.852 50.138 640.07 50.3516C640.289 50.5651 640.578 50.6719 640.938 50.6719ZM649.859 49.5312C649.859 50.099 649.721 50.5781 649.445 50.9688C649.169 51.3594 648.766 51.6562 648.234 51.8594C647.708 52.0573 647.062 52.1562 646.297 52.1562C645.693 52.1562 645.172 52.112 644.734 52.0234C644.302 51.9401 643.893 51.8099 643.508 51.6328V50.0469C643.919 50.2396 644.38 50.4062 644.891 50.5469C645.406 50.6875 645.893 50.7578 646.352 50.7578C646.956 50.7578 647.391 50.6641 647.656 50.4766C647.922 50.2839 648.055 50.0286 648.055 49.7109C648.055 49.5234 648 49.3568 647.891 49.2109C647.786 49.0599 647.589 48.9062 647.297 48.75C647.01 48.5885 646.589 48.3958 646.031 48.1719C645.484 47.9531 645.023 47.7344 644.648 47.5156C644.273 47.2969 643.99 47.0339 643.797 46.7266C643.604 46.4141 643.508 46.0156 643.508 45.5312C643.508 44.7656 643.81 44.1849 644.414 43.7891C645.023 43.388 645.828 43.1875 646.828 43.1875C647.359 43.1875 647.859 43.2422 648.328 43.3516C648.802 43.4557 649.266 43.6094 649.719 43.8125L649.141 45.1953C648.75 45.0234 648.357 44.8828 647.961 44.7734C647.57 44.6589 647.172 44.6016 646.766 44.6016C646.292 44.6016 645.93 44.6745 645.68 44.8203C645.435 44.9661 645.312 45.1745 645.312 45.4453C645.312 45.6484 645.372 45.8203 645.492 45.9609C645.612 46.1016 645.818 46.2422 646.109 46.3828C646.406 46.5234 646.818 46.6979 647.344 46.9062C647.859 47.1042 648.305 47.3125 648.68 47.5312C649.06 47.7448 649.352 48.0078 649.555 48.3203C649.758 48.6328 649.859 49.0365 649.859 49.5312Z" fill="black"/>
<path d="M196.578 53L195.461 49.8281H191.094L189.977 53H188L192.25 41.5312H194.328L198.57 53H196.578ZM194.977 48.2188L193.891 45.0938C193.849 44.9583 193.789 44.7682 193.711 44.5234C193.633 44.2734 193.555 44.0208 193.477 43.7656C193.398 43.5052 193.333 43.2865 193.281 43.1094C193.229 43.3229 193.164 43.5625 193.086 43.8281C193.013 44.0885 192.94 44.3333 192.867 44.5625C192.799 44.7917 192.747 44.9688 192.711 45.0938L191.617 48.2188H194.977ZM203.375 53.1562C202.557 53.1562 201.849 52.9974 201.25 52.6797C200.651 52.362 200.19 51.875 199.867 51.2188C199.544 50.5625 199.383 49.7292 199.383 48.7188C199.383 47.6667 199.56 46.8073 199.914 46.1406C200.268 45.474 200.758 44.9818 201.383 44.6641C202.013 44.3464 202.734 44.1875 203.547 44.1875C204.062 44.1875 204.529 44.2396 204.945 44.3438C205.367 44.4427 205.724 44.5651 206.016 44.7109L205.469 46.1797C205.151 46.0495 204.826 45.9401 204.492 45.8516C204.159 45.763 203.839 45.7188 203.531 45.7188C203.026 45.7188 202.604 45.8307 202.266 46.0547C201.932 46.2786 201.682 46.612 201.516 47.0547C201.354 47.4974 201.273 48.0469 201.273 48.7031C201.273 49.3385 201.357 49.875 201.523 50.3125C201.69 50.7448 201.938 51.0729 202.266 51.2969C202.594 51.5156 202.997 51.625 203.477 51.625C203.951 51.625 204.375 51.5677 204.75 51.4531C205.125 51.3385 205.479 51.1901 205.812 51.0078V52.6016C205.484 52.7891 205.133 52.9271 204.758 53.0156C204.383 53.1094 203.922 53.1562 203.375 53.1562ZM211.062 51.6719C211.302 51.6719 211.539 51.651 211.773 51.6094C212.008 51.5625 212.221 51.5078 212.414 51.4453V52.8359C212.211 52.9245 211.948 53 211.625 53.0625C211.302 53.125 210.966 53.1562 210.617 53.1562C210.128 53.1562 209.688 53.0755 209.297 52.9141C208.906 52.7474 208.596 52.4635 208.367 52.0625C208.138 51.6615 208.023 51.1068 208.023 50.3984V45.75H206.844V44.9297L208.109 44.2812L208.711 42.4297H209.867V44.3516H212.344V45.75H209.867V50.375C209.867 50.8125 209.977 51.138 210.195 51.3516C210.414 51.5651 210.703 51.6719 211.062 51.6719ZM216.008 44.3516V53H214.172V44.3516H216.008ZM215.102 41.0391C215.383 41.0391 215.625 41.1146 215.828 41.2656C216.036 41.4167 216.141 41.6771 216.141 42.0469C216.141 42.4115 216.036 42.6719 215.828 42.8281C215.625 42.9792 215.383 43.0547 215.102 43.0547C214.81 43.0547 214.562 42.9792 214.359 42.8281C214.161 42.6719 214.062 42.4115 214.062 42.0469C214.062 41.6771 214.161 41.4167 214.359 41.2656C214.562 41.1146 214.81 41.0391 215.102 41.0391ZM220.617 53L217.328 44.3516H219.273L221.055 49.4297C221.169 49.7526 221.273 50.1016 221.367 50.4766C221.461 50.8516 221.526 51.1667 221.562 51.4219H221.625C221.661 51.1562 221.732 50.8385 221.836 50.4688C221.94 50.0938 222.047 49.7474 222.156 49.4297L223.938 44.3516H225.875L222.586 53H220.617ZM229.023 44.3516V53H227.188V44.3516H229.023ZM228.117 41.0391C228.398 41.0391 228.641 41.1146 228.844 41.2656C229.052 41.4167 229.156 41.6771 229.156 42.0469C229.156 42.4115 229.052 42.6719 228.844 42.8281C228.641 42.9792 228.398 43.0547 228.117 43.0547C227.826 43.0547 227.578 42.9792 227.375 42.8281C227.177 42.6719 227.078 42.4115 227.078 42.0469C227.078 41.6771 227.177 41.4167 227.375 41.2656C227.578 41.1146 227.826 41.0391 228.117 41.0391ZM234.875 51.6719C235.115 51.6719 235.352 51.651 235.586 51.6094C235.82 51.5625 236.034 51.5078 236.227 51.4453V52.8359C236.023 52.9245 235.76 53 235.438 53.0625C235.115 53.125 234.779 53.1562 234.43 53.1562C233.94 53.1562 233.5 53.0755 233.109 52.9141C232.719 52.7474 232.409 52.4635 232.18 52.0625C231.951 51.6615 231.836 51.1068 231.836 50.3984V45.75H230.656V44.9297L231.922 44.2812L232.523 42.4297H233.68V44.3516H236.156V45.75H233.68V50.375C233.68 50.8125 233.789 51.138 234.008 51.3516C234.227 51.5651 234.516 51.6719 234.875 51.6719ZM236.68 44.3516H238.68L240.453 49.2891C240.531 49.513 240.602 49.7344 240.664 49.9531C240.732 50.1667 240.789 50.3776 240.836 50.5859C240.888 50.7943 240.93 51.0026 240.961 51.2109H241.008C241.06 50.9401 241.133 50.638 241.227 50.3047C241.326 49.9661 241.435 49.6276 241.555 49.2891L243.258 44.3516H245.234L241.523 54.1875C241.31 54.75 241.047 55.2292 240.734 55.625C240.427 56.026 240.062 56.3281 239.641 56.5312C239.219 56.7396 238.737 56.8438 238.195 56.8438C237.935 56.8438 237.708 56.8281 237.516 56.7969C237.323 56.7708 237.159 56.7422 237.023 56.7109V55.2422C237.133 55.2682 237.271 55.2917 237.438 55.3125C237.604 55.3333 237.776 55.3438 237.953 55.3438C238.281 55.3438 238.565 55.2786 238.805 55.1484C239.044 55.0182 239.247 54.8333 239.414 54.5938C239.581 54.3594 239.719 54.0911 239.828 53.7891L240.133 52.9766L236.68 44.3516Z" fill="black"/>
<line x1="46" y1="80.5" x2="139" y2="80.5" stroke="#225077" stroke-width="3"/>
<defs>
<filter id="filter0_d_59_329" x="0" y="0" width="1470" height="101" filterUnits="userSpaceOnUse" color-interpolation-filters="sRGB">
<feFlood flood-opacity="0" result="BackgroundImageFix"/>
<feColorMatrix in="SourceAlpha" type="matrix" values="0 0 0 0 0 0 0 0 0 0 0 0 0 0 0 0 0 0 127 0" result="hardAlpha"/>
<feOffset dy="4"/>
<feGaussianBlur stdDeviation="7.5"/>
<feComposite in2="hardAlpha" operator="out"/>
<feColorMatrix type="matrix" values="0 0 0 0 0 0 0 0 0 0 0 0 0 0 0 0 0 0 0.15 0"/>
<feBlend mode="normal" in2="BackgroundImageFix" result="effect1_dropShadow_59_329"/>
<feBlend mode="normal" in="SourceGraphic" in2="effect1_dropShadow_59_329" result="shape"/>
</filter>
</defs>
</svg>
