<svg width="56" height="56" viewBox="0 0 56 56" fill="none" xmlns="http://www.w3.org/2000/svg">
<path d="M7 31C7 27.8483 7.62078 24.7274 8.82689 21.8156C10.033 18.9038 11.8008 16.258 14.0294 14.0294C16.258 11.8008 18.9038 10.033 21.8156 8.82689C24.7274 7.62078 27.8483 7 31 7C34.1517 7 37.2726 7.62078 40.1844 8.82689C43.0962 10.033 45.742 11.8008 47.9706 14.0294C50.1992 16.258 51.967 18.9038 53.1731 21.8156C54.3792 24.7274 55 27.8483 55 31C55 37.3652 52.4714 43.4697 47.9706 47.9706C43.4697 52.4714 37.3652 55 31 55C24.6348 55 18.5303 52.4714 14.0294 47.9706C9.52856 43.4697 7 37.3652 7 31ZM31 27L29.312 25.032C28.8028 24.4268 28.1763 23.9309 27.4703 23.5743C26.7643 23.2176 25.9935 23.0076 25.2041 22.9568C24.4148 22.906 23.6234 23.0156 22.8775 23.2788C22.1317 23.5421 21.4468 23.9536 20.8643 24.4887C20.2817 25.0237 19.8135 25.6711 19.4878 26.3919C19.1621 27.1126 18.9857 27.8919 18.9693 28.6827C18.9528 29.4735 19.0966 30.2594 19.392 30.9931C19.6874 31.7269 20.1282 32.3932 20.688 32.952L30.288 42.712C30.676 43.112 31.32 43.112 31.712 42.712L41.312 32.952C41.866 32.3918 42.3013 31.7256 42.5919 30.9933C42.8826 30.261 43.0226 29.4776 43.0035 28.6899C42.9845 27.9023 42.8068 27.1266 42.4811 26.4092C42.1554 25.6918 41.6884 25.0474 41.108 24.5146C40.5275 23.9818 39.8457 23.5716 39.1031 23.3083C38.3605 23.0451 37.5724 22.9343 36.786 22.9826C35.9996 23.0309 35.231 23.2373 34.5262 23.5894C33.8214 23.9416 33.1949 24.4322 32.684 25.032L31 27Z" fill="#4B4E55"/>
</svg>
